<?xml version="1.0" encoding="UTF-8" standalone="no"?>
<svg
   xmlns:dc="http://purl.org/dc/elements/1.1/"
   xmlns:cc="http://creativecommons.org/ns#"
   xmlns:rdf="http://www.w3.org/1999/02/22-rdf-syntax-ns#"
   xmlns:svg="http://www.w3.org/2000/svg"
   xmlns="http://www.w3.org/2000/svg"
   xmlns:xlink="http://www.w3.org/1999/xlink"
   xmlns:sodipodi="http://sodipodi.sourceforge.net/DTD/sodipodi-0.dtd"
   xmlns:inkscape="http://www.inkscape.org/namespaces/inkscape"
   version="1.1"
   id="Layer_1"
   x="0px"
   y="0px"
   width="806px"
   height="598.9px"
   viewBox="97 97.1 806 598.9"
   enable-background="new 97 97.1 806 598.9"
   xml:space="preserve"
   sodipodi:docname="better base.svg"
   inkscape:version="1.0.2 (e86c870879, 2021-01-15, custom)"><metadata
   id="metadata413"><rdf:RDF><cc:Work
       rdf:about=""><dc:format>image/svg+xml</dc:format><dc:type
         rdf:resource="http://purl.org/dc/dcmitype/StillImage" /><dc:title /></cc:Work></rdf:RDF></metadata><defs
   id="defs411"><inkscape:path-effect
     effect="powerstroke"
     id="path-effect492"
     is_visible="true"
     lpeversion="1"
     offset_points="0,0.5"
     sort_points="true"
     interpolator_type="CubicBezierJohan"
     interpolator_beta="0.2"
     start_linecap_type="zerowidth"
     linejoin_type="extrp_arc"
     miter_limit="4"
     scale_width="1"
     end_linecap_type="zerowidth" /><inkscape:path-effect
     effect="simplify"
     id="path-effect490"
     is_visible="true"
     lpeversion="1"
     steps="1"
     threshold="0.000408163"
     smooth_angles="360"
     helper_size="0"
     simplify_individual_paths="false"
     simplify_just_coalesce="false" /><inkscape:path-effect
     effect="powerstroke"
     id="path-effect486"
     is_visible="true"
     lpeversion="1"
     offset_points="0,0.5"
     sort_points="true"
     interpolator_type="CubicBezierJohan"
     interpolator_beta="0.2"
     start_linecap_type="zerowidth"
     linejoin_type="extrp_arc"
     miter_limit="4"
     scale_width="1"
     end_linecap_type="zerowidth" /><inkscape:path-effect
     effect="simplify"
     id="path-effect484"
     is_visible="true"
     lpeversion="1"
     steps="1"
     threshold="0.000408163"
     smooth_angles="360"
     helper_size="0"
     simplify_individual_paths="false"
     simplify_just_coalesce="false" /><inkscape:path-effect
     effect="powerstroke"
     id="path-effect480"
     is_visible="true"
     lpeversion="1"
     offset_points="0,0.5"
     sort_points="true"
     interpolator_type="CubicBezierJohan"
     interpolator_beta="0.2"
     start_linecap_type="zerowidth"
     linejoin_type="extrp_arc"
     miter_limit="4"
     scale_width="1"
     end_linecap_type="zerowidth" /><inkscape:path-effect
     effect="simplify"
     id="path-effect478"
     is_visible="true"
     lpeversion="1"
     steps="1"
     threshold="0.000408163"
     smooth_angles="360"
     helper_size="0"
     simplify_individual_paths="false"
     simplify_just_coalesce="false" /><linearGradient
     inkscape:collect="always"
     id="linearGradient443"><stop
       style="stop-color:#0000ff;stop-opacity:1;"
       offset="0"
       id="stop439" /><stop
       style="stop-color:#ff00ff;stop-opacity:1"
       offset="1"
       id="stop441" /></linearGradient><linearGradient
     inkscape:collect="always"
     id="linearGradient433"><stop
       style="stop-color:#0000ff;stop-opacity:1;"
       offset="0"
       id="stop429" /><stop
       style="stop-color:#ff00ff;stop-opacity:1"
       offset="1"
       id="stop431" /></linearGradient><linearGradient
     inkscape:collect="always"
     id="linearGradient423"><stop
       style="stop-color:#0000ff;stop-opacity:1;"
       offset="0"
       id="stop419" /><stop
       style="stop-color:#ff00ff;stop-opacity:1"
       offset="1"
       id="stop421" /></linearGradient><linearGradient
     inkscape:collect="always"
     xlink:href="#linearGradient423"
     id="linearGradient425"
     x1="100.55663"
     y1="533.33685"
     x2="107.51823"
     y2="288.52014"
     gradientUnits="userSpaceOnUse" /><linearGradient
     inkscape:collect="always"
     xlink:href="#linearGradient433"
     id="linearGradient435"
     x1="123.37524"
     y1="457.9194"
     x2="125.30902"
     y2="194.53839"
     gradientUnits="userSpaceOnUse" /><linearGradient
     inkscape:collect="always"
     xlink:href="#linearGradient443"
     id="linearGradient445"
     x1="613.78217"
     y1="418.85703"
     x2="617.64972"
     y2="203.04703"
     gradientUnits="userSpaceOnUse" /><linearGradient
     inkscape:collect="always"
     xlink:href="#linearGradient423"
     id="linearGradient225"
     x1="444.94867"
     y1="499.09729"
     x2="442.21387"
     y2="373.29742"
     gradientUnits="userSpaceOnUse" /><linearGradient
     inkscape:collect="always"
     xlink:href="#linearGradient423"
     id="linearGradient233"
     x1="383.14264"
     y1="525.35114"
     x2="382.3222"
     y2="341.84744"
     gradientUnits="userSpaceOnUse" /></defs><sodipodi:namedview
   pagecolor="#ffffff"
   bordercolor="#666666"
   borderopacity="1"
   objecttolerance="10"
   gridtolerance="10"
   guidetolerance="10"
   inkscape:pageopacity="0"
   inkscape:pageshadow="2"
   inkscape:window-width="3440"
   inkscape:window-height="1377"
   id="namedview409"
   showgrid="false"
   inkscape:zoom="2.5856079"
   inkscape:cx="444.10039"
   inkscape:cy="321.83369"
   inkscape:window-x="-8"
   inkscape:window-y="1432"
   inkscape:window-maximized="1"
   inkscape:current-layer="Layer_1"
   inkscape:document-rotation="0" />
<pattern
   x="97"
   y="696"
   width="40"
   height="103"
   patternUnits="userSpaceOnUse"
   id="SVGID_1_"
   viewBox="0 -231.7 40 103"
   overflow="visible">
	<g
   id="g38">
		<polygon
   fill="none"
   points="0,-128.7 40,-128.7 40,-231.7 0,-231.7   "
   id="polygon2" />
		<g
   id="g36">
			<polygon
   fill="none"
   points="0,-128.7 40,-128.7 40,-231.7 0,-231.7    "
   id="polygon4" />
			<polygon
   points="34.5,-360.5 37.5,-360.5 37.5,-206 34.5,-206    "
   id="polygon6" />
			<polygon
   points="26.5,-360.5 29.5,-360.5 29.5,-206 26.5,-206    "
   id="polygon8" />
			<polygon
   points="18.5,-360.5 21.5,-360.5 21.5,-206 18.5,-206    "
   id="polygon10" />
			<polygon
   points="10.5,-360.5 13.5,-360.5 13.5,-206 10.5,-206    "
   id="polygon12" />
			<polygon
   points="2.5,-360.5 5.5,-360.5 5.5,-206 2.5,-206    "
   id="polygon14" />
			<polygon
   points="34.5,-257.5 37.5,-257.5 37.5,-103 34.5,-103    "
   id="polygon16" />
			<polygon
   points="26.5,-257.5 29.5,-257.5 29.5,-103 26.5,-103    "
   id="polygon18" />
			<polygon
   points="18.5,-257.5 21.5,-257.5 21.5,-103 18.5,-103    "
   id="polygon20" />
			<polygon
   points="10.5,-257.5 13.5,-257.5 13.5,-103 10.5,-103    "
   id="polygon22" />
			<polygon
   points="2.5,-257.5 5.5,-257.5 5.5,-103 2.5,-103    "
   id="polygon24" />
			<polygon
   points="34.5,-154.5 37.5,-154.5 37.5,0 34.5,0    "
   id="polygon26" />
			<polygon
   points="26.5,-154.5 29.5,-154.5 29.5,0 26.5,0    "
   id="polygon28" />
			<polygon
   points="18.5,-154.5 21.5,-154.5 21.5,0 18.5,0    "
   id="polygon30" />
			<polygon
   points="10.5,-154.5 13.5,-154.5 13.5,0 10.5,0    "
   id="polygon32" />
			<polygon
   points="2.5,-154.5 5.5,-154.5 5.5,0 2.5,0    "
   id="polygon34" />
		</g>
	</g>
</pattern>
<pattern
   x="97"
   y="696"
   width="40"
   height="103"
   patternUnits="userSpaceOnUse"
   id="SVGID_2_"
   viewBox="0 -231.7 40 103"
   overflow="visible">
	<g
   id="g77">
		<polygon
   fill="none"
   points="0,-128.7 40,-128.7 40,-231.7 0,-231.7   "
   id="polygon41" />
		<g
   id="g75">
			<polygon
   fill="none"
   points="0,-128.7 40,-128.7 40,-231.7 0,-231.7    "
   id="polygon43" />
			<polygon
   points="34.5,-360.5 37.5,-360.5 37.5,-206 34.5,-206    "
   id="polygon45" />
			<polygon
   points="26.5,-360.5 29.5,-360.5 29.5,-206 26.5,-206    "
   id="polygon47" />
			<polygon
   points="18.5,-360.5 21.5,-360.5 21.5,-206 18.5,-206    "
   id="polygon49" />
			<polygon
   points="10.5,-360.5 13.5,-360.5 13.5,-206 10.5,-206    "
   id="polygon51" />
			<polygon
   points="2.5,-360.5 5.5,-360.5 5.5,-206 2.5,-206    "
   id="polygon53" />
			<polygon
   points="34.5,-257.5 37.5,-257.5 37.5,-103 34.5,-103    "
   id="polygon55" />
			<polygon
   points="26.5,-257.5 29.5,-257.5 29.5,-103 26.5,-103    "
   id="polygon57" />
			<polygon
   points="18.5,-257.5 21.5,-257.5 21.5,-103 18.5,-103    "
   id="polygon59" />
			<polygon
   points="10.5,-257.5 13.5,-257.5 13.5,-103 10.5,-103    "
   id="polygon61" />
			<polygon
   points="2.5,-257.5 5.5,-257.5 5.5,-103 2.5,-103    "
   id="polygon63" />
			<polygon
   points="34.5,-154.5 37.5,-154.5 37.5,0 34.5,0    "
   id="polygon65" />
			<polygon
   points="26.5,-154.5 29.5,-154.5 29.5,0 26.5,0    "
   id="polygon67" />
			<polygon
   points="18.5,-154.5 21.5,-154.5 21.5,0 18.5,0    "
   id="polygon69" />
			<polygon
   points="10.5,-154.5 13.5,-154.5 13.5,0 10.5,0    "
   id="polygon71" />
			<polygon
   points="2.5,-154.5 5.5,-154.5 5.5,0 2.5,0    "
   id="polygon73" />
		</g>
	</g>
</pattern>
<pattern
   x="97"
   y="696"
   width="71"
   height="71"
   patternUnits="userSpaceOnUse"
   id="SVGID_3_"
   viewBox="0 -71 71 71"
   overflow="visible">
	<g
   id="g88">
		<polygon
   fill="none"
   points="0,0 71,0 71,-71 0,-71   "
   id="polygon80" />
		<g
   id="g86">
			<polygon
   fill="none"
   points="0,0 71,0 71,-71 0,-71    "
   id="polygon82" />
			<path
   fill="#B3B3B3"
   d="M41.8-35.5c0-3.5-2.8-6.3-6.3-6.3s-6.3,2.8-6.3,6.3s2.8,6.3,6.3,6.3S41.8-32,41.8-35.5z"
   id="path84" />
		</g>
	</g>
</pattern>
<g
   id="g129">
	<g
   id="g127">
		<g
   id="g125">
			<path
   fill="#0D0E13"
   d="M898.3,515.7c-2.9-15.5-17.7-102.5-32-144.6c-9.4-27.7-13.1-53-17-64.9c-12-35.7-33-65.7-33-65.7     s-9.5-13.1-10.1-16.3c-0.6-3.3-4.7-8.6-4.7-8.6s-17.4-5.7-62.3-5.7s-53.7,5-53.7,5s-2.4,2.9-5.9,4.8c-3.5,1.8-11.7,1.7-11.7,1.7     h-33.4c0,0-0.6-0.1-0.9,0.3c-0.4,0.4-0.6,2-0.6,2H500H366.9c0,0-0.3-1.7-0.6-2c-0.4-0.4-0.9-0.3-0.9-0.3H332     c0,0-8.2,0.2-11.7-1.7c-3.5-1.8-5.9-4.8-5.9-4.8s-8.8-5-53.7-5c-44.8,0-62.3,5.7-62.3,5.7s-4.1,5.3-4.7,8.6     c-0.6,3.3-10.1,16.3-10.1,16.3s-21,30-33,65.7c-4,11.9-7.7,37.2-17,64.9c-14.3,42.1-29.1,129.1-32,144.6     c-4.3,23.2-4.6,90.2-4.6,90.2s4.5,53.4,36.2,74.9s56.7,14,56.7,14s33.1-8.2,57.8-41.9s56.6-129.2,56.6-129.2s2.2-3,5.7-5.3     s6.3-2.6,6.3-2.6l183.7,0.1l183.7-0.1c0,0,2.8,0.3,6.3,2.6s5.7,5.3,5.7,5.3s31.9,95.4,56.6,129.2s57.8,41.9,57.8,41.9     s25,7.5,56.7-14s36.2-74.9,36.2-74.9S902.7,538.9,898.3,515.7z"
   id="path91" />
			<g
   opacity="6.000000e-002"
   id="g95">
				<path
   fill="#FFFFFF"
   d="M133.6,373.1c9.4-27.7,13.1-53,17-64.9c12-35.7,33-65.7,33-65.7s9.5-13.1,10.1-16.3      c0.6-3.3,4.7-8.6,4.7-8.6s17.4-5.7,62.3-5.7c44.8,0,53.7,5,53.7,5s2.4,2.9,5.9,4.8c3.5,1.8,11.7,1.7,11.7,1.7h33.4      c0,0,0.6-0.1,0.9,0.3c0.4,0.4,0.6,2,0.6,2H500h133.1c0,0,0.3-1.7,0.6-2c0.4-0.4,0.9-0.3,0.9-0.3H668c0,0,8.2,0.2,11.7-1.7      c3.5-1.8,5.9-4.8,5.9-4.8s8.8-5,53.7-5s62.3,5.7,62.3,5.7s4.1,5.3,4.7,8.6c0.6,3.3,10.1,16.3,10.1,16.3s21,30,33,65.7      c4,11.9,7.7,37.2,17,64.9c14.3,42.1,29.1,129.1,32,144.6c3.9,20.9,4.6,77.3,4.7,88.3c0-0.1,0-0.1,0-0.1s-0.3-66.9-4.7-90.1      c-2.9-15.5-17.7-102.5-32-144.6c-9.4-27.7-13.1-53-17-64.9c-12-35.7-33-65.7-33-65.7s-9.5-13.1-10.1-16.3      c-0.6-3.3-4.7-8.6-4.7-8.6s-17.4-5.7-62.3-5.7s-53.7,5-53.7,5s-2.4,2.9-5.9,4.8c-3.5,1.8-11.7,1.7-11.7,1.7h-33.4      c0,0-0.6-0.1-0.9,0.3c-0.4,0.4-0.6,2-0.6,2H500H366.9c0,0-0.3-1.7-0.6-2c-0.4-0.4-0.9-0.3-0.9-0.3H332c0,0-8.2,0.2-11.7-1.7      c-3.5-1.8-5.9-4.8-5.9-4.8s-8.8-5-53.7-5c-44.8,0-62.3,5.7-62.3,5.7s-4.1,5.3-4.7,8.6c-0.6,3.3-10.1,16.3-10.1,16.3      s-21,30-33,65.7c-4,11.9-7.7,37.2-17,64.9c-14.3,42.1-29.1,129.1-32,144.6c-4.3,23.1-4.6,90.1-4.6,90.1v0.1      c0.1-10.9,0.7-67.4,4.7-88.3C104.6,502.3,119.3,415.2,133.6,373.1z"
   id="path93" />
			</g>
			<path
   fill="#13161F"
   d="M448.2,457.1c0-42.2-34.3-76.5-76.5-76.5s-76.5,34.3-76.5,76.5c0,0.7,0,1.3,0.1,2c0,0.7-0.1,1.3-0.1,2     c0,42.2,34.3,76.5,76.5,76.5s76.5-34.3,76.5-76.5c0-0.7,0-1.3-0.1-2C448.1,458.4,448.2,457.7,448.2,457.1z"
   id="path97" />
			<circle
   fill="#0F1015"
   cx="371.7"
   cy="453.1"
   r="73"
   id="circle99" />
			<circle
   cx="371.7"
   cy="453.1"
   r="51.5"
   id="circle101" />
			<path
   fill="#13161F"
   d="M704.8,457.1c0-42.2-34.3-76.5-76.5-76.5s-76.5,34.3-76.5,76.5c0,0.7,0,1.3,0.1,2c0,0.7-0.1,1.3-0.1,2     c0,42.2,34.3,76.5,76.5,76.5s76.5-34.3,76.5-76.5c0-0.7,0-1.3-0.1-2C704.8,458.4,704.8,457.7,704.8,457.1z"
   id="path103" />
			<circle
   fill="#0F1015"
   cx="628.3"
   cy="453.1"
   r="73"
   id="circle105" />
			<circle
   cx="628.3"
   cy="453.1"
   r="51.5"
   id="circle107"
   style="fill:#ff00ff" />
			<path
   fill="#121212"
   d="M631.8,225.1c-0.4-3.2-3.3-5.6-6.5-5.6l0,0H500l0,0H374.7l0,0c-3.2,0-6.1,2.3-6.5,5.6     c-0.1,0.7-0.1,1.4-0.1,2.1v127.4c0,8.9,7.2,16.1,16.1,16.1H500l0,0h115.8c8.9,0,16.1-7.2,16.1-16.1V227.2     C632,226.5,631.9,225.8,631.8,225.1z"
   id="path109" />
			<circle
   fill="#080808"
   cx="749.3"
   cy="341.9"
   r="94.3"
   id="circle111" />
			<g
   id="g123">
				<circle
   fill="#080808"
   cx="250.7"
   cy="341.9"
   r="94.3"
   id="circle113" />
				<path
   fill="#1F1F1F"
   d="M327.4,351.2l9.5-8.9c0.5-0.5,0.5-1.2,0-1.7l-9.5-8.9c-0.7-0.7-1.9-0.2-1.9,0.8v8.9v8.9      C325.4,351.3,326.6,351.8,327.4,351.2z"
   id="path115" />
				<path
   fill="#1F1F1F"
   d="M242,266.9h8.9h8.9c1,0,1.5-1.2,0.8-1.9l-8.9-9.5c-0.5-0.5-1.2-0.5-1.7,0l-8.9,9.5      C240.5,265.7,241,266.9,242,266.9z"
   id="path117" />
				<path
   fill="#1F1F1F"
   d="M174.5,331.7l-9.5,8.9c-0.5,0.5-0.5,1.2,0,1.7l9.5,8.9c0.7,0.7,1.9,0.2,1.9-0.8v-8.9v-8.9      C176.4,331.5,175.2,331,174.5,331.7z"
   id="path119" />
				<path
   fill="#1F1F1F"
   d="M259.8,415.9h-8.9H242c-1,0-1.5,1.2-0.8,1.9l8.9,9.5c0.5,0.5,1.2,0.5,1.7,0l8.9-9.5      C261.3,417.1,260.8,415.9,259.8,415.9z"
   id="path121" />
			</g>
		</g>
	</g>
</g>
<g
   id="g191">
	<g
   id="g138">
		<path
   opacity="0.1"
   fill="#E6E6E6"
   enable-background="new    "
   d="M202.2,641.6c-40.5-2.8-75.8-20.3-87.3-30.5    c-11.5-10.3-17.5-31.6-17.5-31.6c-0.4,15-0.4,26.3-0.4,26.3s4.5,53.4,36.2,74.9s56.7,14,56.7,14s33.1-8.2,57.8-41.9    c4.5-6.2,9.3-14.5,14.1-23.8C261.7,629,242.6,644.3,202.2,641.6z"
   id="path131" />
		
			<pattern
   id="SVGID_4_"
   xlink:href="#SVGID_1_"
   patternTransform="matrix(0.3298 9.457588e-002 9.457588e-002 -0.3298 -10180.4512 -7431.5161)">
		</pattern>
		<path
   opacity="8.000000e-002"
   fill="url(#SVGID_4_)"
   enable-background="new    "
   d="M202.2,641.6c-40.5-2.8-75.8-20.3-87.3-30.5    c-11.5-10.3-17.5-31.6-17.5-31.6c-0.4,15-0.4,26.3-0.4,26.3s4.5,53.4,36.2,74.9s56.7,14,56.7,14s33.1-8.2,57.8-41.9    c4.5-6.2,9.3-14.5,14.1-23.8C261.7,629,242.6,644.3,202.2,641.6z"
   id="path134" />
		<path
   opacity="0.22"
   enable-background="new    "
   d="M187,689.6c-12.5,1.8-31.3-2-45.1-7.7c-13.6-5.7-24-16.4-24-16.4    c4.2,5.8,9.3,11.1,15.3,15.2c31.7,21.5,56.7,14,56.7,14s11.7-2.9,26.3-12.3C216.2,682.4,201.6,687.6,187,689.6z"
   id="path136" />
	</g>
	<g
   id="g147">
		<path
   opacity="0.1"
   fill="#E6E6E6"
   enable-background="new    "
   d="M797.8,641.6c40.5-2.8,75.8-20.3,87.3-30.5    s17.5-31.5,17.5-31.5c0.4,15,0.4,26.3,0.4,26.3s-4.5,53.4-36.2,74.9s-56.7,14-56.7,14s-33.1-8.2-57.8-41.9    c-4.5-6.2-9.3-14.5-14.1-23.8C738.3,629,757.4,644.3,797.8,641.6z"
   id="path140" />
		
			<pattern
   id="SVGID_5_"
   xlink:href="#SVGID_2_"
   patternTransform="matrix(-0.3298 9.457588e-002 -9.457588e-002 -0.3298 -21159.9766 -7429.6616)">
		</pattern>
		<path
   opacity="8.000000e-002"
   fill="url(#SVGID_5_)"
   enable-background="new    "
   d="M797.8,641.6c40.5-2.8,75.8-20.3,87.3-30.5    s17.5-31.5,17.5-31.5c0.4,15,0.4,26.3,0.4,26.3s-4.5,53.4-36.2,74.9s-56.7,14-56.7,14s-33.1-8.2-57.8-41.9    c-4.5-6.2-9.3-14.5-14.1-23.8C738.3,629,757.4,644.3,797.8,641.6z"
   id="path143" />
		<path
   opacity="0.22"
   enable-background="new    "
   d="M813,689.6c12.5,1.8,31.3-2,45.1-7.7c13.6-5.7,24-16.4,24-16.4    c-4.2,5.8-9.3,11.1-15.3,15.2c-31.7,21.5-56.7,14-56.7,14s-11.7-2.9-26.3-12.3C783.8,682.4,798.4,687.6,813,689.6z"
   id="path145" />
	</g>
	<g
   id="g155">
		<g
   id="g153">
			<path
   d="M337.5,240.6c6.9,0,12.5,5.6,12.5,12.5v18.3c0,6.9-5.6,12.5-12.5,12.5s-12.5-5.6-12.5-12.5v-18.3     C325,246.2,330.6,240.6,337.5,240.6 M337.5,238.9c-7.8,0-14.2,6.4-14.2,14.2v18.3c0,7.8,6.4,14.2,14.2,14.2s14.2-6.4,14.2-14.2     v-18.3C351.7,245.2,345.3,238.9,337.5,238.9L337.5,238.9z"
   id="path149" />
			<path
   fill="#10111A"
   d="M337.5,240.6c-6.9,0-12.5,5.6-12.5,12.5v18.3c0,6.9,5.6,12.5,12.5,12.5s12.5-5.6,12.5-12.5v-18.3     C350,246.2,344.4,240.6,337.5,240.6z"
   id="path151" />
		</g>
	</g>
	<g
   id="g163">
		<g
   id="g161">
			<path
   d="M662.5,240.6c6.9,0,12.5,5.6,12.5,12.5v18.3c0,6.9-5.6,12.5-12.5,12.5l0,0c-6.9,0-12.5-5.6-12.5-12.5v-18.3     C650,246.2,655.6,240.6,662.5,240.6L662.5,240.6 M662.5,238.9c-7.8,0-14.2,6.4-14.2,14.2v18.3c0,7.8,6.4,14.2,14.2,14.2     s14.2-6.4,14.2-14.2v-18.3C676.7,245.2,670.3,238.9,662.5,238.9L662.5,238.9z"
   id="path157" />
			<path
   fill="#10111A"
   d="M662.5,240.6c-6.9,0-12.5,5.6-12.5,12.5v18.3c0,6.9,5.6,12.5,12.5,12.5s12.5-5.6,12.5-12.5v-18.3     C675,246.2,669.4,240.6,662.5,240.6z"
   id="path159" />
		</g>
	</g>
	<g
   id="g189">
		<g
   id="g169">
			<path
   fill="#1A1A1A"
   d="M238.2,344.3c1.4-2,1.2-2.9,1.2-2.9s0.2-0.9-1.2-2.9s-15-13.6-15.7-14c-0.7-0.4-28.5-2.2-31.4,1.3     c-2.9,3.5-2.6,15.6-2.6,15.6s-0.3,12.1,2.6,15.6c2.9,3.5,30.7,1.7,31.4,1.3S236.8,346.3,238.2,344.3z"
   id="path165" />
			<path
   opacity="0.25"
   enable-background="new    "
   d="M238.2,344.3c1.4-2,1.2-2.9,1.2-2.9s0.2-0.9-1.2-2.9     c-0.9-1.3-6.9-6.6-11.2-10.3c-2.1,3.9-3.4,8.4-3.4,13.2c0,4.8,1.2,9.3,3.4,13.2C231.3,350.9,237.3,345.6,238.2,344.3z"
   id="path167" />
		</g>
		<g
   id="g175">
			<path
   fill="#1A1A1A"
   d="M248,328.7c2,1.4,2.9,1.2,2.9,1.2s0.9,0.2,2.9-1.2s13.6-15,14-15.7c0.4-0.7,2.2-28.5-1.3-31.4     c-3.5-2.9-15.6-2.6-15.6-2.6s-12.1-0.3-15.6,2.6c-3.5,2.9-1.7,30.7-1.3,31.4C234.5,313.7,246,327.3,248,328.7z"
   id="path171" />
			<path
   opacity="0.25"
   enable-background="new    "
   d="M248,328.7c2,1.4,2.9,1.2,2.9,1.2s0.9,0.2,2.9-1.2     c1.3-0.9,6.6-6.9,10.3-11.2c-3.9-2.1-8.4-3.4-13.2-3.4s-9.3,1.2-13.2,3.4C241.5,321.8,246.7,327.8,248,328.7z"
   id="path173" />
		</g>
		<g
   id="g181">
			<path
   fill="#1A1A1A"
   d="M310.7,325.9c-2.9-3.5-30.7-1.7-31.4-1.3c-0.7,0.4-14.3,12-15.7,14s-1.2,2.9-1.2,2.9s-0.2,0.9,1.2,2.9     s15,13.6,15.7,14c0.7,0.4,28.5,2.2,31.4-1.3c2.9-3.5,2.6-15.6,2.6-15.6S313.6,329.4,310.7,325.9z"
   id="path177" />
			<path
   opacity="0.25"
   enable-background="new    "
   d="M274.9,328.3c-4.3,3.7-10.3,9-11.2,10.3c-1.4,2-1.2,2.9-1.2,2.9     s-0.2,0.9,1.2,2.9c0.9,1.3,6.9,6.6,11.2,10.3c2.1-3.9,3.4-8.4,3.4-13.2C278.3,336.7,277,332.2,274.9,328.3z"
   id="path179" />
		</g>
		<g
   id="g187">
			<path
   fill="#1A1A1A"
   d="M253.8,354.2c-2-1.4-2.9-1.2-2.9-1.2s-0.9-0.2-2.9,1.2s-13.6,15-14,15.7s-2.2,28.5,1.3,31.4     s15.6,2.6,15.6,2.6s12.1,0.3,15.6-2.6s1.7-30.7,1.3-31.4C267.4,369.1,255.8,355.6,253.8,354.2z"
   id="path183" />
			<path
   opacity="0.25"
   enable-background="new    "
   d="M253.8,354.2c-2-1.4-2.9-1.2-2.9-1.2s-0.9-0.2-2.9,1.2     c-1.3,0.9-6.6,6.9-10.3,11.2c3.9,2.1,8.4,3.4,13.2,3.4s9.3-1.2,13.2-3.4C260.4,361.1,255.1,355.1,253.8,354.2z"
   id="path185" />
		</g>
	</g>
</g>
<g
   id="g221">
	<g
   id="g207">
		<circle
   cx="500"
   cy="413.5"
   r="4.1"
   id="circle193" />
		<circle
   cx="500"
   cy="392.6"
   r="4.1"
   id="circle195" />
		<circle
   cx="493.1"
   cy="402.8"
   r="4.1"
   id="circle197" />
		<circle
   cx="478.4"
   cy="402.8"
   r="4.1"
   id="circle199" />
		<circle
   cx="485.7"
   cy="413.5"
   r="4.1"
   id="circle201" />
		<circle
   cx="485.7"
   cy="392.6"
   r="4.1"
   id="circle203" />
		<circle
   cx="471.4"
   cy="392.6"
   r="4.1"
   id="circle205" />
	</g>
	<g
   id="g219">
		<circle
   cx="506.9"
   cy="402.8"
   r="4.1"
   id="circle209" />
		<circle
   cx="521.6"
   cy="402.8"
   r="4.1"
   id="circle211" />
		<circle
   cx="514.2"
   cy="413.5"
   r="4.1"
   id="circle213" />
		<circle
   cx="514.2"
   cy="392.6"
   r="4.1"
   id="circle215" />
		<circle
   cx="528.6"
   cy="392.6"
   r="4.1"
   id="circle217" />
	</g>
</g>
<g
   opacity="0.12"
   id="g247">
	<path
   fill="#FFFFFF"
   d="M500,416.6c-2.1,0-3.8-1.6-4.1-3.6c0,0.2-0.1,0.3-0.1,0.5c0,2.3,1.8,4.1,4.1,4.1c2.3,0,4.1-1.8,4.1-4.1   c0-0.2,0-0.3-0.1-0.5C503.8,415,502.1,416.6,500,416.6z"
   id="path223" />
	<path
   fill="#FFFFFF"
   d="M500,396.7c2.3,0,4.1-1.8,4.1-4.1c0-0.2,0-0.3-0.1-0.5c-0.2,2-2,3.6-4.1,3.6s-3.8-1.6-4.1-3.6   c0,0.2-0.1,0.3-0.1,0.5C495.9,394.8,497.7,396.7,500,396.7z"
   id="path225" />
	<path
   fill="#FFFFFF"
   d="M497.2,402.8c0-0.2,0-0.3-0.1-0.5c-0.2,2-2,3.6-4.1,3.6s-3.8-1.6-4.1-3.6c0,0.2-0.1,0.3-0.1,0.5   c0,2.3,1.8,4.1,4.1,4.1C495.3,406.9,497.2,405.1,497.2,402.8z"
   id="path227" />
	<path
   fill="#FFFFFF"
   d="M482.4,402.3c-0.2,2-2,3.6-4.1,3.6s-3.8-1.6-4.1-3.6c0,0.2-0.1,0.3-0.1,0.5c0,2.3,1.8,4.1,4.1,4.1   c2.3,0,4.1-1.8,4.1-4.1C482.5,402.6,482.5,402.5,482.4,402.3z"
   id="path229" />
	<path
   fill="#FFFFFF"
   d="M485.8,416.6c-2.1,0-3.8-1.6-4.1-3.6c0,0.2-0.1,0.3-0.1,0.5c0,2.3,1.8,4.1,4.1,4.1c2.3,0,4.1-1.8,4.1-4.1   c0-0.2,0-0.3-0.1-0.5C489.6,415,487.9,416.6,485.8,416.6z"
   id="path231" />
	<path
   fill="#FFFFFF"
   d="M485.8,396.7c2.3,0,4.1-1.8,4.1-4.1c0-0.2,0-0.3-0.1-0.5c-0.2,2-2,3.6-4.1,3.6s-3.8-1.6-4.1-3.6   c0,0.2-0.1,0.3-0.1,0.5C481.6,394.8,483.5,396.7,485.8,396.7z"
   id="path233" />
	<path
   fill="#FFFFFF"
   d="M475.6,392.6c0-0.2,0-0.3-0.1-0.5c-0.2,2-2,3.6-4.1,3.6s-3.8-1.6-4.1-3.6c0,0.2-0.1,0.3-0.1,0.5   c0,2.3,1.8,4.1,4.1,4.1C473.7,396.7,475.6,394.8,475.6,392.6z"
   id="path235" />
	<path
   fill="#FFFFFF"
   d="M511,402.3c-0.2,2-2,3.6-4.1,3.6s-3.8-1.6-4.1-3.6c0,0.2-0.1,0.3-0.1,0.5c0,2.3,1.8,4.1,4.1,4.1   c2.3,0,4.1-1.8,4.1-4.1C511.1,402.6,511,402.5,511,402.3z"
   id="path237" />
	<path
   fill="#FFFFFF"
   d="M521.6,405.9c-2.1,0-3.8-1.6-4.1-3.6c0,0.2-0.1,0.3-0.1,0.5c0,2.3,1.8,4.1,4.1,4.1c2.3,0,4.1-1.8,4.1-4.1   c0-0.2,0-0.3-0.1-0.5C525.5,404.4,523.7,405.9,521.6,405.9z"
   id="path239" />
	<path
   fill="#FFFFFF"
   d="M514.3,416.6c-2.1,0-3.8-1.6-4.1-3.6c0,0.2-0.1,0.3-0.1,0.5c0,2.3,1.8,4.1,4.1,4.1c2.3,0,4.1-1.8,4.1-4.1   c0-0.2,0-0.3-0.1-0.5C518.1,415,516.4,416.6,514.3,416.6z"
   id="path241" />
	<path
   fill="#FFFFFF"
   d="M514.3,396.7c2.3,0,4.1-1.8,4.1-4.1c0-0.2,0-0.3-0.1-0.5c-0.2,2-2,3.6-4.1,3.6c-2.1,0-3.8-1.6-4.1-3.6   c0,0.2-0.1,0.3-0.1,0.5C510.1,394.8,512,396.7,514.3,396.7z"
   id="path243" />
	<path
   fill="#FFFFFF"
   d="M528.6,395.7c-2.1,0-3.8-1.6-4.1-3.6c0,0.2-0.1,0.3-0.1,0.5c0,2.3,1.8,4.1,4.1,4.1c2.3,0,4.1-1.8,4.1-4.1   c0-0.2,0-0.3-0.1-0.5C532.4,394.1,530.7,395.7,528.6,395.7z"
   id="path245" />
</g>
<path
   fill="#0b0b0f"
   d="m 533.6,518.1 c 14.01095,-6.6626 -45.26667,0 -67.9,0 -2.8,0 -4.6,0.6 -4.6,-2.2 v 0 c 0,-2.8 2.3,-5 5,-5 H 534 c 2.8,0 5,2.3 5,5 v 0 c 0.1,2.7 -7.92866,3.40245 -5.4,2.2 z"
   id="path249"
   sodipodi:nodetypes="sssssssss" />
<path
   d="M505.3,515.9h-36.5c-0.5,0-0.9-0.4-0.9-0.9l0,0c0-1.1,0.9-2,2-2h34.2c1.1,0,2,0.9,2,2l0,0  C506.2,515.5,505.8,515.9,505.3,515.9z"
   id="path251" />
<path
   d="M527.5,516.7h-4.2c-0.9,0-1.7-0.8-1.7-1.7l0,0c0-1.6,1.3-2.8,2.8-2.8h1.9c1.6,0,2.8,1.3,2.8,2.8l0,0  C529.2,516,528.5,516.7,527.5,516.7z"
   id="path253" />
<g
   id="g264">
	<g
   id="g262">
		<path
   fill="#080808"
   d="M627.4,221.4c0-1-0.8-1.9-1.9-1.9H500l0,0H374.4c-1,0-1.9,0.8-1.9,1.9v6v123.2c0,8.6,7,15.6,15.6,15.6H500    l0,0h111.9c8.6,0,15.6-7,15.6-15.6V227.5L627.4,221.4z"
   id="path255" />
		<g
   opacity="0.12"
   id="g260">
			
				<pattern
   id="SVGID_6_"
   xlink:href="#SVGID_3_"
   patternTransform="matrix(0.1017 0 0 -0.1017 -13979.8896 -2289.7598)"
   opacity="0.12">
			</pattern>
			<path
   fill="url(#SVGID_6_)"
   d="M372.5,350.6c0,8.6,7,15.6,15.6,15.6H500l0,0h111.9c8.6,0,15.6-7,15.6-15.6V244.1h-255V350.6z"
   id="path258" />
		</g>
	</g>
</g>
<g
   id="g308">
	<g
   id="g306">
		<g
   id="g274">
			<g
   id="g270">
				<path
   fill="#1A1A1A"
   d="M806.9,368.1c-14.5,0-26.3-11.8-26.3-26.3c0-14.5,11.8-26.3,26.3-26.3s26.3,11.8,26.3,26.3      S821.4,368.1,806.9,368.1z"
   id="path266" />
				<path
   fill="#0F0F0F"
   d="M806.9,316.6c13.9,0,25.3,11.3,25.3,25.3s-11.3,25.2-25.3,25.2s-25.3-11.3-25.3-25.3      C781.6,327.8,793,316.6,806.9,316.6 M806.9,314.6c-15,0-27.3,12.2-27.3,27.3c0,15.1,12.2,27.3,27.3,27.3s27.3-12.2,27.3-27.3      C834.2,326.8,821.9,314.6,806.9,314.6L806.9,314.6z"
   id="path268" />
			</g>
			<path
   fill="#FF6666"
   d="M806.9,323c-10.4,0-18.9,8.5-18.9,18.9s8.5,18.9,18.9,18.9s18.9-8.5,18.9-18.9     C825.8,331.5,817.4,323,806.9,323z M806.9,357.9c-8.9,0-16-7.2-16-16c0-8.9,7.2-16,16-16s16,7.2,16,16     C823,350.8,815.8,357.9,806.9,357.9z"
   id="path272" />
		</g>
		<g
   id="g284">
			<g
   id="g280">
				<path
   fill="#1A1A1A"
   d="M749.3,425.7c-14.5,0-26.3-11.8-26.3-26.3s11.8-26.3,26.3-26.3s26.3,11.8,26.3,26.3      S763.8,425.7,749.3,425.7z"
   id="path276" />
				<path
   fill="#0F0F0F"
   d="M749.3,374.2c13.9,0,25.3,11.3,25.3,25.3s-11.3,25.3-25.3,25.3S724,413.5,724,399.5      S735.4,374.2,749.3,374.2 M749.3,372.2c-15,0-27.3,12.2-27.3,27.3c0,15,12.2,27.3,27.3,27.3s27.3-12.2,27.3-27.3      C776.6,384.5,764.4,372.2,749.3,372.2L749.3,372.2z"
   id="path278" />
			</g>
			<polygon
   fill="#7CB2E8"
   points="763.7,387.1 761.7,385.1 749.3,397.5 737,385.1 735,387.1 747.3,399.5 735,411.8 737,413.8      749.3,401.5 761.7,413.8 763.7,411.8 751.3,399.5    "
   id="polygon282" />
		</g>
		<g
   id="g294">
			<g
   id="g290">
				<path
   fill="#1A1A1A"
   d="M691.8,368.1c-14.5,0-26.3-11.8-26.3-26.3c0-14.5,11.8-26.3,26.3-26.3s26.3,11.8,26.3,26.3      S706.2,368.1,691.8,368.1z"
   id="path286" />
				<path
   fill="#0F0F0F"
   d="M691.7,316.6c13.9,0,25.3,11.3,25.3,25.3s-11.3,25.2-25.3,25.2s-25.3-11.3-25.3-25.3      C666.4,327.8,677.8,316.6,691.7,316.6 M691.7,314.6c-15,0-27.3,12.2-27.3,27.3c0,15.1,12.2,27.3,27.3,27.3S719,357,719,341.9      C719,326.8,706.8,314.6,691.7,314.6L691.7,314.6z"
   id="path288" />
			</g>
			<path
   fill="#FF69F8"
   d="M703.3,327.5h-23h-2.8v2.8v23v2.8h2.8h23h2.8v-2.8v-23v-2.8L703.3,327.5L703.3,327.5z M703.3,353.4h-23     v-23h23V353.4z"
   id="path292" />
		</g>
		<g
   id="g304">
			<g
   id="g300">
				<path
   fill="#1A1A1A"
   d="M749.3,310.6c-14.5,0-26.3-11.8-26.3-26.3s11.8-26.3,26.3-26.3s26.3,11.8,26.3,26.3      S763.8,310.6,749.3,310.6z"
   id="path296" />
				<path
   fill="#0F0F0F"
   d="M749.3,259.1c13.9,0,25.3,11.3,25.3,25.3s-11.3,25.3-25.3,25.3S724,298.4,724,284.4      S735.4,259.1,749.3,259.1 M749.3,257.1c-15,0-27.3,12.2-27.3,27.3c0,15.1,12.2,27.3,27.3,27.3s27.3-12.2,27.3-27.3      C776.6,269.3,764.4,257.1,749.3,257.1L749.3,257.1z"
   id="path298" />
			</g>
			<path
   fill="#40E2A0"
   d="M765.3,292.3l-16-27.6l-16,27.6l-1.6,2.8h3.3h14.3h14.3h3.3L765.3,292.3z M749.3,292.3h-12.7l12.7-21.9     l12.7,21.9H749.3z"
   id="path302" />
		</g>
	</g>
</g>
<g
   id="g320">
	<circle
   fill="#050505"
   stroke="#000000"
   stroke-width="2"
   stroke-miterlimit="10"
   cx="500"
   cy="459.1"
   r="20.2"
   id="circle310" />
	<g
   id="g318">
		<path
   fill="#F2F2F2"
   d="M501.1,465.7v-2.8v-3.5v-6.5c0-0.5,0.1-0.8,0.3-1c0.1-0.2,0.4-0.3,0.7-0.2c0.6,0.2,0.9,0.7,0.9,1.7v6.9    c0.8,0.4,1.5,0.5,2.1,0.5s1.2-0.2,1.6-0.5c1-0.7,1.5-1.9,1.5-3.7c0-1.9-0.4-3.4-1.2-4.3c-0.8-1-2.1-1.9-4.1-2.6    c-1.3-0.4-2.5-0.8-3.6-1.1c-1.1-0.3-2-0.5-2.9-0.7v12.2l0,0v2.7l0,0v1.7l0,0v2.5l0,0v1.5l4.7,1.5v-3.6l0,0V465.7z"
   id="path312" />
		<path
   fill="#F2F2F2"
   d="M496,464.7l-1.7,0.6l-0.9,0.4l-1.6,0.3l-1.5-0.2c-0.3-0.2-0.4-0.4-0.2-0.6c0.1-0.1,0.2-0.1,0.3-0.2    c0.1-0.1,0.3-0.1,0.4-0.2l1.1-0.4l4.1-1.5v-2.7l-1.7,0.5l-5.5,2l-1,0.4c-1.5,0.6-2.2,1.2-2.2,1.8c0.1,0.8,1,1.5,2.7,1.9    c0.7,0.2,1.4,0.3,2.1,0.4s1.4,0.1,2.2,0.1c1,0,2.1-0.1,3.3-0.3v-2.3H496z"
   id="path314" />
		<path
   fill="#F2F2F2"
   d="M511.8,462.4c-0.9-0.3-1.7-0.5-2.5-0.6s-1.7-0.2-2.5-0.1c-0.9,0-1.9,0.2-2.8,0.3c-0.8,0.2-1.7,0.4-2.6,0.8    v2.8l3.9-1.4l1.6-0.5l1.1-0.3h1.4c0.3,0.1,0.6,0.2,0.7,0.4c0,0.2-0.2,0.4-0.8,0.6l-1.4,0.5l-6.5,2.4v2.7l3.5-1.3l6.4-2.3l0.7-0.4    c1.5-0.5,2.2-1.2,2.2-1.9C514.2,463.5,513.4,462.9,511.8,462.4z"
   id="path316" />
	</g>
</g>
<g
   id="g338">
	<g
   id="g328">
		<g
   id="g326">
			<path
   fill="#0A0A0A"
   d="M794.2,207c0-0.8-0.4-1.5-1.1-1.9c-4.5-2.9-23.4-13.6-51.5-13.6c-26.9,0-41.1,5.9-45.1,8     c-0.8,0.4-1.2,1.2-1.2,2c0,0,9.8-2.9,47.5-2.9C780.5,198.6,794.2,207,794.2,207z"
   id="path322" />
			<path
   fill="#121212"
   d="M794.1,213.9L794.1,213.9V207c0,0-13.7-8.4-51.4-8.4c-37.8,0-47.5,2.9-47.5,2.9v11l0,0     c7.7-1.3,21.2-2.6,44.1-2.6C767.8,210,785.2,212.3,794.1,213.9z"
   id="path324" />
		</g>
	</g>
	<g
   id="g336">
		<g
   id="g334">
			<path
   fill="#0A0A0A"
   d="M205.8,207c0-0.8,0.4-1.5,1.1-1.9c4.5-2.9,23.4-13.6,51.5-13.6c26.9,0,41.1,5.9,45.1,8     c0.8,0.4,1.2,1.2,1.2,2c0,0-9.8-2.9-47.5-2.9S205.8,207,205.8,207z"
   id="path330" />
			<path
   fill="#121212"
   d="M205.9,213.9L205.9,213.9V207c0,0,13.7-8.4,51.4-8.4c37.8,0,47.5,2.9,47.5,2.9v11l0,0     c-7.7-1.3-21.2-2.6-44.1-2.6C232.2,210,214.8,212.3,205.9,213.9z"
   id="path332" />
		</g>
	</g>
</g>
<g
   id="g376">
	<g
   id="g356">
		<g
   id="g354">
			<g
   id="g344">
				<path
   fill="#121212"
   d="M794.2,187.9c0,0-32.7-3.2-50.6-3.2s-48.4,2.4-48.4,2.4s3.1-44.7,4.8-52c1.6-7.3,7.7-21.3,16.9-27.9      s11.9-10.1,22.7-10.1s25.4,6.4,34.6,21.4C783.5,133.5,794.2,187.9,794.2,187.9z"
   id="path340" />
				<path
   fill="#0A0A0A"
   d="M695.7,180.3c0,0,26.1-4.4,49-4.4c22.8,0,47.9,4.4,47.9,4.4c1,4.7,1.6,7.6,1.6,7.6s-32.7-3.2-50.6-3.2      s-48.4,2.4-48.4,2.4S695.4,184.4,695.7,180.3z"
   id="path342" />
			</g>
			<g
   opacity="8.000000e-002"
   id="g352">
				<g
   id="g348">
					<path
   fill="#FFFFFF"
   d="M745.7,162.8c-2.1,1.7-3.2,2.6-3.2,2.6c-1.2,1.2-1.9,2.7-2,4.5h9.8v-2.6H744c0.3-0.5,1-1.2,2.1-1.9       c1.4-0.9,2.3-1.6,2.7-2.1c0.9-1,1.3-2.1,1.3-3.3c0-1.4-0.5-2.5-1.4-3.3c-0.9-0.8-2.1-1.2-3.5-1.2c-3.1,0-4.7,1.7-4.7,5h2.7       c0-1.8,0.7-2.7,2.1-2.7c1.3,0,2,0.7,2,2.1C747.5,161,746.9,161.9,745.7,162.8z"
   id="path346" />
				</g>
				<path
   fill="#FFFFFF"
   d="M728.1,164.3h3c1.5,0,2.3,0.6,2.4,1.9c0.1,1.2,0.2,2.5,0.3,3.8h3.3v-0.4c-0.5-0.2-0.7-0.7-0.7-1.5      c0-0.2,0-0.4,0.1-0.8v-0.7c0-1.7-0.6-2.9-1.8-3.5c1.4-0.5,2.2-1.6,2.2-3.4c0-1.3-0.4-2.3-1.3-3c-0.8-0.7-1.9-1-3.2-1h-7.3V170h3      V164.3z M728.1,158.1h3.7c1.4,0,2.1,0.6,2.1,1.9c0,1.3-0.8,1.9-2.3,1.9h-3.5V158.1z"
   id="path350" />
			</g>
		</g>
	</g>
	<g
   id="g374">
		<g
   id="g372">
			<g
   id="g362">
				<path
   fill="#121212"
   d="M205.8,187.9c0,0,32.7-3.2,50.6-3.2s48.3,2.4,48.3,2.4s-3.1-44.7-4.8-52c-1.6-7.3-7.7-21.3-16.9-27.9      c-9.1-6.7-11.8-10.1-22.6-10.1c-10.8,0-25.4,6.4-34.6,21.4S205.8,187.9,205.8,187.9z"
   id="path358" />
				<path
   fill="#0A0A0A"
   d="M304.3,180.3c0,0-26.1-4.4-49-4.4c-22.8,0-47.9,4.4-47.9,4.4c-1,4.7-1.6,7.6-1.6,7.6s32.7-3.2,50.6-3.2      s48.3,2.4,48.3,2.4S304.6,184.4,304.3,180.3z"
   id="path360" />
			</g>
			<g
   opacity="8.000000e-002"
   id="g370">
				<g
   id="g366">
					<path
   fill="#FFFFFF"
   d="M270.3,162.8c-2.1,1.7-3.2,2.6-3.2,2.6c-1.2,1.2-1.9,2.7-2,4.5h9.8v-2.6h-6.2c0.3-0.5,1-1.2,2.1-1.9       c1.4-0.9,2.3-1.6,2.7-2.1c0.9-1,1.3-2.1,1.3-3.3c0-1.4-0.5-2.5-1.4-3.3c-0.9-0.8-2.1-1.2-3.5-1.2c-3.1,0-4.7,1.7-4.7,5h2.7       c0-1.8,0.7-2.7,2.1-2.7c1.3,0,2,0.7,2,2.1C272.1,161,271.5,161.9,270.3,162.8z"
   id="path364" />
				</g>
				<polygon
   fill="#FFFFFF"
   points="261.8,167.3 254.8,167.3 254.8,155.6 251.7,155.6 251.7,169.9 261.8,169.9     "
   id="polygon368" />
			</g>
		</g>
	</g>
</g>

<a
   id="a459"><path
     style="fill:url(#linearGradient425);stroke-width:0.773512;fill-opacity:1"
     d="M 104.42418,544.17561 C 83.04966,542.22332 61.841701,536.7646 42.997647,528.365 20.479161,518.32757 11.79616,510.12294 4.0162748,491.53128 L 1.1602687,484.70625 1.3311854,471.94329 C 1.6965095,444.66326 3.1561457,430.33562 8.5809738,400.78015 19.124165,343.33887 27.521645,306.09852 36.226938,278.17842 c 6.111691,-19.60176 6.871306,-22.39272 12.159453,-44.67594 5.581168,-23.51795 8.682792,-32.61253 17.047014,-49.98524 7.332501,-15.22979 11.924301,-23.32396 21.11636,-37.2227 4.079768,-6.16876 8.987326,-14.34762 10.905683,-18.17524 4.053152,-8.08707 3.887012,-7.99235 17.411152,-9.92574 16.76045,-2.39605 30.77528,-3.04401 56.32997,-2.60437 32.02191,0.5509 42.19692,1.85776 47.46352,6.09617 5.71959,4.60295 6.53259,4.7456 29.14818,5.11434 19.05747,0.31072 20.90323,0.45969 22.23849,1.79496 1.403,1.403 1.45612,3.85727 1.45612,67.28116 0,73.61638 -0.37646,68.65759 5.6007,73.77382 1.92711,1.64953 4.5092,2.94265 6.89943,3.45526 5.47992,1.17524 232.68193,1.13923 238.16995,-0.0377 2.66103,-0.57069 4.9726,-1.73946 6.92017,-3.49898 5.75762,-5.20166 5.40105,-0.37506 5.42973,-73.49899 0.0247,-63.04388 0.083,-65.70028 1.47763,-67.37206 1.4231,-1.70588 1.78704,-1.74091 18.34519,-1.76572 21.09139,-0.0316 26.40253,-0.65394 30.55433,-3.5803 8.76921,-6.18088 15.29831,-7.20721 49.47266,-7.77672 25.89715,-0.43158 39.9597,0.21732 56.76073,2.61917 13.52414,1.93339 13.358,1.83867 17.41115,9.92574 1.91836,3.82762 6.82353,12.00648 10.90036,18.17524 8.52669,12.90195 12.52642,19.8012 19.15575,33.04232 9.94169,19.85708 13.3992,29.7665 19.44485,55.73002 2.54934,10.94839 6.02856,24.43121 7.73158,29.96183 13.28812,43.15354 20.39245,73.68678 32.03598,137.68522 4.69065,25.78214 5.42719,32.38794 6.70844,60.17057 l 0.88428,19.17442 -2.11324,5.96474 c -7.27867,20.54483 -16.42654,29.7043 -40.2902,40.34134 -23.46647,10.46 -47.67541,15.80996 -71.4822,15.79691 -18.46591,-0.0101 -34.69417,-3.45724 -45.60082,-9.68629 -3.97227,-2.26865 -4.21575,-2.61529 -9.33242,-13.28644 -9.47805,-19.76711 -24.78259,-58.0662 -34.82484,-87.148 -1.61791,-4.68536 -3.40364,-8.28395 -4.9276,-9.93006 -2.67024,-2.88425 -7.31639,-5.54019 -9.69173,-5.54019 -1.28257,0 -0.68116,-1.0909 3.36276,-6.09981 11.90223,-14.74243 17.47531,-30.80494 17.47531,-50.3666 0,-12.81443 -2.8411,-25.98848 -7.62832,-35.37221 -0.90961,-1.78298 -1.65383,-3.40094 -1.65383,-3.59548 0,-0.19454 2.87468,1.30047 6.38818,3.32223 15.31137,8.81056 29.4421,12.51811 47.71863,12.52018 35.72887,0.004 68.12935,-20.17946 84.28895,-52.50683 10.42986,-20.86499 12.33461,-48.18497 4.94653,-70.9485 -10.66013,-32.84512 -38.76215,-57.21076 -73.72617,-63.9237 -7.64974,-1.46872 -26.14786,-1.22781 -34.03455,0.44324 -57.85927,12.25938 -90.54446,70.64845 -70.41822,125.79566 1.26942,3.47832 3.53557,8.55741 5.03588,11.28689 1.5003,2.72947 2.72783,5.09125 2.72783,5.24841 0,0.15715 -1.85062,-0.71661 -4.11249,-1.94169 -6.82413,-3.6961 -14.06914,-6.19342 -24.12072,-8.31427 -1.27629,-0.26929 -7.01962,-0.48485 -12.76295,-0.47902 -12.52587,0.0127 -20.50784,1.76805 -31.49386,6.92588 -20.83814,9.7833 -35.46879,27.26015 -42.15639,50.35732 -1.5783,5.45104 -1.76148,7.69956 -1.72556,21.18189 0.0349,13.09094 0.26574,15.90096 1.74753,21.2716 3.03577,11.00292 9.63831,23.22602 16.922,31.32724 l 3.47728,3.86757 h -17.86247 c -14.44727,0 -17.86247,-0.19891 -17.86247,-1.04038 0,-0.57221 -0.63654,-1.61645 -1.41455,-2.32054 -1.27358,-1.15258 -5.00034,-1.28015 -37.39547,-1.28015 -33.87537,0 -36.05583,0.0828 -37.26107,1.41455 -0.70409,0.77801 -1.28015,1.82225 -1.28015,2.32054 0,0.66615 -4.72862,0.90598 -17.86247,0.90598 h -17.86247 l 3.47728,-3.86757 c 7.33224,-8.15522 13.93738,-20.4677 16.8955,-31.49449 2.01412,-7.50793 2.81669,-26.39865 1.4883,-35.03154 -4.7103,-30.61101 -28.65428,-56.09109 -59.31725,-63.12266 -6.3827,-1.46366 -20.48273,-1.93406 -27.76227,-0.92618 -7.93338,1.09839 -17.3571,4.24967 -24.94578,8.34182 -2.23352,1.2044 -4.06094,2.076 -4.06094,1.93686 0,-0.13913 1.36288,-2.80327 3.02861,-5.92032 3.71908,-6.95939 7.16626,-16.6724 9.0117,-25.39192 1.92603,-9.10033 1.98872,-27.44727 0.12341,-36.11659 -4.15902,-19.32964 -12.81222,-35.50665 -26.16396,-48.91303 -31.81647,-31.94667 -81.75538,-36.75891 -119.49797,-11.51513 -7.842661,5.24549 -19.913687,17.19689 -24.860615,24.61423 -8.012858,12.01435 -12.812333,23.74224 -15.350115,37.50921 -1.906326,10.34145 -1.205451,29.02799 1.472347,39.25533 11.020963,42.09249 48.244763,71.14441 91.056843,71.06679 5.33938,-0.01 12.12695,-0.39409 15.0835,-0.85425 11.21774,-1.74593 26.09535,-7.34444 35.80387,-13.47317 1.77069,-1.11779 3.21944,-1.84007 3.21944,-1.60507 0,0.235 -0.74422,1.88608 -1.65383,3.66906 -4.78722,9.38373 -7.62832,22.55778 -7.62832,35.37221 0,19.56166 5.57308,35.62417 17.47531,50.3666 4.04392,5.00891 4.64533,6.09981 3.36276,6.09981 -2.37597,0 -7.02214,2.65642 -9.69,5.54019 -1.73615,1.87667 -3.61404,6.06709 -6.87652,15.34465 -11.05663,31.44186 -25.11517,66.1361 -33.84675,83.52838 l -4.8461,9.65287 -5.02783,2.53687 c -6.46503,3.26204 -15.38139,6.09234 -23.83944,7.56729 -6.84104,1.19298 -24.03829,2.00693 -30.30644,1.43443 z M 411.96454,381.48984 c 9.28217,-4.10126 14.45668,-15.24588 11.61591,-25.0178 -2.47427,-8.51118 -9.9401,-14.90791 -18.41263,-15.77597 -14.12717,-1.4474 -26.19931,11.90421 -23.13678,25.58897 3.04354,13.59998 17.24235,20.81231 29.9335,15.2048 z m -20.05587,-62.08621 c 1.68779,-1.2987 0.82267,-5.48982 -1.38912,-6.72969 -1.83166,-1.02677 -2.24746,-1.00523 -4.1064,0.2128 -1.64271,1.07635 -2.01921,1.85916 -1.82953,3.80391 0.3639,3.73081 4.17018,5.14054 7.32505,2.71298 z m 13.42287,0.30434 c 3.17059,-2.56739 1.59852,-7.88176 -2.33154,-7.88176 -1.79878,0 -3.60185,1.64754 -4.10266,3.74879 -0.57684,2.42014 0.1013,3.97478 2.0831,4.77554 2.30868,0.93286 2.42712,0.91537 4.3511,-0.64257 z m 14.89722,-0.097 c 1.01887,-0.93668 1.32195,-4.04433 0.53739,-5.51029 -1.94453,-3.63339 -7.71049,-1.88312 -7.71049,2.34055 0,3.68847 4.46342,5.66081 7.1731,3.16974 z m -36.28413,-10.93498 c 2.53519,-1.99418 2.56794,-3.35189 0.13947,-5.78036 -2.25912,-2.25913 -2.8516,-2.32489 -4.91008,-0.54498 -2.43991,2.10973 -2.80452,4.50339 -0.96598,6.34192 1.99968,1.99968 3.17765,1.99628 5.73659,-0.0166 z m 14.69674,0 c 1.12095,-0.88174 2.03809,-2.2488 2.03809,-3.03791 0,-1.32786 -3.3265,-4.64107 -4.65969,-4.64107 -1.12089,0 -3.71854,2.72116 -4.20806,4.40813 -0.33783,1.16425 0.007,2.20138 1.09306,3.28743 1.99969,1.99968 3.17766,1.99628 5.7366,-0.0166 z m 13.46867,0.39904 c 2.44412,-1.71194 2.31048,-5.33436 -0.25892,-7.01789 -1.87397,-1.22787 -2.08767,-1.21455 -4.06094,0.25314 -2.64617,1.96819 -3.00681,4.33766 -0.97018,6.37429 1.90935,1.90934 3.00596,1.99028 5.29004,0.39046 z m 14.97654,-0.31716 c 1.00435,-0.83671 1.52241,-1.53287 1.15124,-1.54703 -0.37117,-0.0141 -0.25368,-0.53321 0.26108,-1.15346 0.75735,-0.91254 0.56074,-1.50292 -1.0304,-3.09405 -2.38009,-2.3801 -2.81215,-2.40908 -5.41313,-0.36316 -2.43259,1.91348 -2.60142,4.02161 -0.49107,6.13196 1.94385,1.94385 3.21274,1.94976 5.52228,0.0258 z M 377.66179,298.0574 c 2.49307,-2.1407 0.19856,-7.11606 -3.28175,-7.11606 -2.73,0 -5.44947,4.4871 -4.02876,6.64739 1.67854,2.55234 4.66116,2.74354 7.31051,0.46867 z m 13.56341,0.96197 c 2.46528,-1.72675 2.30975,-5.33484 -0.30378,-7.04729 -1.8148,-1.1891 -2.23257,-1.20778 -4.06094,-0.18155 -2.85092,1.60019 -2.91279,6.01093 -0.10424,7.43183 2.44222,1.23556 2.41326,1.23687 4.46896,-0.20299 z m 29.83581,-1.26497 c 0.40211,-0.63746 0.4962,-2.09494 0.2091,-3.23883 -1.27169,-5.06683 -8.57268,-3.89908 -8.06653,1.29021 0.39701,4.0703 5.69096,5.38319 7.85743,1.94862 z m 13.45962,0.70728 c 1.35533,-1.0487 1.2054,-4.8508 -0.24863,-6.30481 -3.22425,-3.22426 -8.46835,1.00992 -6.76108,5.459 0.89657,2.33642 4.51847,2.77345 7.00971,0.84581 z m -28.1938,-0.57363 c 2.53243,-3.61554 -1.16817,-8.17858 -5.15836,-6.36052 -2.33455,1.06369 -3.14476,4.69749 -1.4646,6.56881 1.65942,1.84822 5.26188,1.73493 6.62296,-0.20829 z M 245.79788,187.64054 c 1.5759,-0.65845 3.68627,-1.96375 4.68972,-2.90067 3.72354,-3.47665 4.30083,-5.66947 4.62516,-17.56831 0.35162,-12.90047 -0.33932,-16.52033 -3.93505,-20.61564 -7.1004,-8.08692 -19.19007,-6.06251 -23.8456,3.99294 -1.18708,2.564 -1.4354,5.05288 -1.44948,14.5282 -0.0223,14.98183 1.54306,18.91321 8.87841,22.2987 3.80007,1.75384 7.27357,1.83718 11.03684,0.26478 z m 324.87524,0 c 3.82228,-1.59705 6.27104,-3.95365 7.99927,-7.69821 1.18503,-2.56761 1.43088,-5.07523 1.44498,-14.73824 0.0159,-10.87423 -0.11001,-11.89718 -1.90359,-15.47025 -1.08285,-2.15718 -3.11747,-4.63571 -4.66457,-5.68226 -3.25953,-2.20496 -9.10404,-2.9564 -12.99822,-1.6712 -3.47984,1.14845 -7.91458,6.01445 -8.98081,9.85414 -1.05213,3.78896 -1.06755,22.17782 -0.0217,25.94339 2.24995,8.10133 11.46746,12.66202 19.12467,9.46263 z M 227.25797,137.6312 c 0.72194,-0.72194 0.92821,-0.72194 0.92821,0 0,0.51052 0.52212,0.92822 1.16027,0.92822 0.64459,0 1.16027,-0.68757 1.16027,-1.54703 0,-1.03135 0.51568,-1.54702 1.54702,-1.54702 1.03135,0 1.54703,0.51567 1.54703,1.54702 0,0.85946 0.51568,1.54703 1.16027,1.54703 0.87664,0 1.16027,-0.94541 1.16027,-3.86757 0,-2.92215 -0.28363,-3.86756 -1.16027,-3.86756 -0.63815,0 -1.16027,0.52212 -1.16027,1.16027 0,0.64459 -0.68757,1.16027 -1.54703,1.16027 -0.85945,0 -1.54702,-0.51568 -1.54702,-1.16027 0,-0.63815 -0.52212,-1.16027 -1.16027,-1.16027 -0.70991,0 -1.16027,0.7225 -1.16027,1.86137 0,1.55579 -0.28571,1.78315 -1.7404,1.38493 -1.46862,-0.40204 -1.52234,-0.52167 -0.34395,-0.76606 2.36073,-0.48961 0.96925,-2.07957 -2.0426,-2.33392 -3.39305,-0.28655 -4.79901,1.71097 -2.42574,3.44634 1.27874,0.93504 1.29233,1.04842 0.12568,1.04842 -1.5123,0 -1.77696,2.00243 -0.34122,2.58176 1.81784,0.73352 4.91086,0.51323 5.84002,-0.41593 z m 11.75739,0.1547 c 0,-0.42543 0.67561,-0.77351 1.50137,-0.77351 0.82575,0 1.7165,0.34808 1.97943,0.77351 0.26293,0.42544 1.50176,0.77352 2.75295,0.77352 1.7592,0 2.27488,-0.35068 2.27488,-1.54703 0,-1.03135 0.51568,-1.54702 1.54703,-1.54702 1.03134,0 1.54702,0.51567 1.54702,1.54702 0,0.85087 0.50535,1.54703 1.12301,1.54703 0.84597,0 1.0845,-0.90641 0.96689,-3.67419 l -0.15612,-3.67418 -3.67418,-0.23576 -3.67419,-0.23576 -0.048,3.32981 -0.048,3.32981 -1.65143,-3.28743 c -2.14318,-4.26632 -3.85977,-4.25824 -5.49588,0.0259 -1.55419,4.06944 -1.56256,4.42184 -0.10514,4.42184 0.63814,0 1.16027,-0.34808 1.16027,-0.77352 z m 21.65834,0 c 0,-0.42543 -1.04424,-0.77351 -2.32053,-0.77351 -1.2763,0 -2.32054,-0.34808 -2.32054,-0.77351 0,-0.42543 0.8702,-0.77351 1.93378,-0.77351 1.06358,0 1.93378,-0.34808 1.93378,-0.77352 0,-0.42543 -0.8702,-0.77351 -1.93378,-0.77351 -1.06358,0 -1.93378,-0.34808 -1.93378,-0.77351 0,-0.42543 1.04424,-0.77351 2.32054,-0.77351 1.27629,0 2.32053,-0.34808 2.32053,-0.77352 0,-0.42543 -1.56636,-0.77351 -3.4808,-0.77351 h -3.48081 v 3.86756 3.86757 h 3.48081 c 1.91444,0 3.4808,-0.34808 3.4808,-0.77352 z m 286.04492,-0.1547 c 0.51052,-0.51052 0.92821,-1.83322 0.92821,-2.93935 0,-2.65994 -1.32837,-3.86756 -4.25432,-3.86756 -2.92594,0 -4.25431,1.20762 -4.25431,3.86756 0,2.65995 1.32837,3.86757 4.25431,3.86757 1.31884,0 2.81559,-0.4177 3.32611,-0.92822 z m 4.02226,-0.61881 c 0,-1.21364 0.51568,-1.54702 2.39296,-1.54702 1.74243,0 2.50293,-0.42056 2.79751,-1.54703 0.75111,-2.87227 2.54466,-1.78188 2.54466,1.54703 0,2.23459 0.3223,3.09405 1.16027,3.09405 0.83797,0 1.16027,-0.85946 1.16027,-3.09405 0,-2.23459 0.32229,-3.09405 1.16026,-3.09405 0.63815,0 1.16027,-0.34808 1.16027,-0.77352 0,-0.46139 -2.96513,-0.77351 -7.34837,-0.77351 h -7.34836 v 3.86756 c 0,2.92216 0.28362,3.86757 1.16026,3.86757 0.6446,0 1.16027,-0.68757 1.16027,-1.54703 z m 15.47025,-0.17211 v -1.71914 l 1.23377,1.76145 c 0.96917,1.38369 1.83705,1.71091 4.04685,1.52576 2.28677,-0.19159 2.95488,-0.64131 3.57098,-2.40367 1.09963,-3.1455 -0.20334,-4.74298 -4.10424,-5.03189 -2.75204,-0.20383 -3.32048,0.0197 -3.93314,1.54702 l -0.71616,1.78529 -0.049,-1.7404 c -0.0285,-1.00956 -0.53627,-1.74041 -1.20931,-1.74041 -0.87664,0 -1.16026,0.94541 -1.16026,3.86756 0,2.92216 0.28362,3.86757 1.16026,3.86757 0.68332,0 1.16027,-0.70669 1.16027,-1.71914 z m 12.40194,-0.0213 0.0258,-1.74041 1.4519,1.74041 c 1.71069,2.05063 3.9112,2.29385 3.9112,0.43229 0,-1.19711 0.0849,-1.19194 1.00103,0.0609 1.40093,1.91589 6.22225,1.453 6.61849,-0.63543 0.15611,-0.82274 -0.34267,-1.954 -1.10839,-2.51391 -1.32314,-0.96751 -1.32412,-1.01802 -0.0197,-1.01802 0.75492,0 1.22754,-0.4351 1.05028,-0.96689 -0.18444,-0.55331 -1.61367,-0.96689 -3.3413,-0.96689 -2.33987,0 -3.082,0.32715 -3.29908,1.45434 -0.15404,0.79988 0.18927,1.75177 0.76293,2.11531 0.80752,0.51175 0.73739,0.66365 -0.31065,0.67282 -0.99101,0.009 -1.35365,-0.60982 -1.35365,-2.30869 0,-1.54703 -0.38676,-2.32054 -1.16027,-2.32054 -0.73778,0 -1.16027,0.74213 -1.16027,2.0381 v 2.03809 l -1.60316,-2.03809 c -2.56141,-3.25631 -3.81143,-2.65631 -3.81143,1.82946 0,2.92216 0.28363,3.86757 1.16027,3.86757 0.67994,0 1.17092,-0.72049 1.18601,-1.74041 z"
     id="path417"
     transform="translate(97,97.1)" /></a><path
   style="fill:url(#linearGradient435);stroke-width:0.386756;fill-opacity:1"
   d="m 146.88179,338.63865 c -12.37151,-1.23381 -20.77119,-3.30372 -30.74712,-7.57695 -25.205709,-10.79695 -45.151064,-33.52051 -52.947574,-60.32269 -3.72618,-12.80954 -4.458376,-31.51238 -1.751542,-44.74043 2.728065,-13.3318 9.745415,-28.6342 17.677562,-38.5486 3.718981,-4.64836 12.364803,-13.28191 16.910225,-16.88621 12.660079,-10.03884 27.468109,-16.37238 44.283589,-18.94051 6.36259,-0.97172 18.21641,-1.16501 24.17227,-0.39415 25.05512,3.24285 46.66447,15.14316 62.26069,34.28709 11.27026,13.83392 18.72528,31.58421 20.53685,48.89789 0.68725,6.56837 0.2624,20.55106 -0.81166,26.71295 -2.62411,15.05453 -9.70372,30.5777 -19.57893,42.92994 -5.99681,7.50101 -15.58319,15.93751 -23.73133,20.8848 -9.61984,5.84085 -23.51202,11.03079 -34.18959,12.77278 -4.45673,0.72709 -18.265,1.30491 -22.08344,0.92409 z m 10.96455,-11.47298 c 5.37966,-5.63858 6.3186,-6.78292 6.17558,-7.52656 -0.12307,-0.63991 -0.87312,-0.6998 -9.96324,-0.79549 -9.79168,-0.10307 -10.4345,-0.0308 -10.4584,1.17605 -0.011,0.55672 9.74633,10.7235 10.29165,10.7235 0.29766,0 2.07715,-1.60988 3.95441,-3.5775 z m 7.87413,-21.1642 c 2.58726,-0.64406 4.27992,-1.90293 4.83902,-3.59888 0.94601,-2.86956 1.36972,-9.93839 1.09474,-18.26355 -0.36651,-11.09659 -0.38834,-11.19807 -3.09371,-14.38383 -8.95584,-10.54615 -12.65124,-14.04275 -14.84112,-14.04275 -1.05854,0 -3.48191,1.70002 -5.41133,3.79612 -3.43434,3.73103 -10.84956,12.40085 -11.25619,13.16066 -0.66279,1.23842 -1.21334,16.22324 -0.81454,22.17 0.64394,9.60227 1.11813,10.27624 8.13053,11.55614 2.50005,0.45631 19.17278,0.14873 21.3526,-0.39391 z M 118.2414,261.88765 c 4.63547,-0.25699 7.20491,-0.55976 7.73512,-0.91145 1.27965,-0.84881 10.24564,-8.63677 12.90903,-11.21293 4.72249,-4.56782 4.75435,-6.3312 0.19376,-10.72493 -2.86004,-2.7554 -11.82926,-10.58021 -13.02771,-11.36547 -1.94483,-1.2743 -21.87337,-1.6669 -27.9011,-0.54966 -3.007515,0.55744 -4.043057,1.12478 -4.810074,2.63525 -1.410842,2.77835 -1.764782,5.6954 -1.764782,14.54469 0,13.12812 0.83702,15.69222 5.560193,17.03293 2.948663,0.83699 11.789653,1.06804 21.105563,0.55157 z m 88.97436,0.009 c 4.88087,-0.53887 6.50881,-1.211 7.27829,-3.00502 1.28488,-2.99562 1.52201,-4.7576 1.70309,-12.65472 0.25965,-11.32341 -0.75212,-16.82202 -3.34174,-18.16116 -2.16293,-1.1185 -7.19912,-1.47101 -18.58805,-1.30107 l -11.15036,0.16637 -1.48709,1.00359 c -1.70274,1.14914 -8.29165,6.87095 -12.38555,10.7556 -5.0886,4.82852 -5.16554,6.27726 -0.57513,10.82782 2.98844,2.96248 11.49005,10.4101 13.13338,11.50515 1.59194,1.06082 18.44043,1.63326 25.41316,0.86344 z M 79.302921,244.52354 c 0.103003,-9.7902 0.0303,-10.43937 -1.171853,-10.46351 -0.519807,-0.0104 -10.727689,9.75204 -10.727689,10.25961 0,0.26878 2.306034,2.68046 5.12452,5.35929 3.519228,3.34485 5.366829,4.84072 5.898033,4.77524 0.747654,-0.0922 0.776972,-0.42415 0.876989,-9.93063 z m 153.930929,7.19981 c 1.64374,-1.55586 3.90234,-3.66816 5.0191,-4.694 1.22598,-1.12617 2.02936,-2.18897 2.02767,-2.68244 -0.002,-0.5494 -1.64529,-2.33694 -5.014,-5.45374 -2.75616,-2.55006 -5.19732,-4.69851 -5.4248,-4.77433 -0.22747,-0.0758 -0.66879,0.0739 -0.98071,0.33281 -0.46973,0.38984 -0.56714,2.07678 -0.56714,9.8215 0,11.97266 0.0625,12.06685 4.93988,7.4502 z m -76.86161,-19.69971 c 1.33346,-0.89981 6.55005,-6.50839 11.55662,-12.42503 3.42613,-4.0489 3.34897,-3.73553 3.72537,-15.13136 0.27515,-8.33027 -0.15047,-15.42204 -1.09474,-18.24074 -1.02926,-3.07243 -4.14214,-3.99708 -14.40428,-4.27867 -8.20679,-0.22518 -13.1705,0.24293 -16.14522,1.52263 -2.21066,0.95099 -2.78904,1.89737 -3.40699,5.57466 -0.50259,2.99087 -0.60626,16.82589 -0.1714,22.87369 l 0.28552,3.97076 3.88867,4.53788 c 10.91807,12.74079 12.42629,13.85009 15.76645,11.59618 z m 7.52682,-63.21038 c 0,-0.95189 -9.18075,-10.95013 -10.05481,-10.95013 -0.49368,0 -9.31308,9.0912 -9.99037,10.29827 -0.19112,0.34061 -0.13076,0.80018 0.14946,1.13782 0.39428,0.47507 2.03632,0.54977 10.1829,0.46319 9.70068,-0.10309 9.71282,-0.10428 9.71282,-0.94915 z"
   id="path427"
   transform="translate(97,97.1)" /><path
   style="fill:url(#linearGradient445);stroke-width:0.386756;fill-opacity:1"
   d="m 643.86355,338.46904 c -15.0052,-1.33967 -27.95751,-5.66137 -41.46905,-13.83666 -10.36536,-6.27167 -21.28407,-16.88867 -28.44205,-27.65614 -10.97979,-16.51647 -16.17059,-34.76386 -15.64392,-54.99363 0.36795,-14.13356 3.53826,-26.84046 9.83205,-39.40778 7.16522,-14.30738 19.13962,-27.62441 32.98641,-36.685 11.85218,-7.75542 27.55371,-13.37177 40.80278,-14.59491 5.52277,-0.50986 17.68055,-0.50456 21.86187,0.01 9.54397,1.17343 19.51177,4.13939 28.49792,8.47967 6.99299,3.37759 11.13131,5.87651 16.74242,10.10989 19.57255,14.76678 32.42528,36.16124 36.22906,60.30632 0.88124,5.59377 0.99319,22.23802 0.18591,27.63928 -3.16276,21.16119 -12.05174,38.98252 -26.71964,53.56966 -14.5602,14.48003 -32.64566,23.49004 -53.16035,26.48402 -5.11623,0.74667 -16.42789,1.04675 -21.70341,0.57575 z m 14.12961,-9.28192 c 10.29871,-1.91465 19.25787,-11.12438 21.22348,-21.81705 1.06152,-5.77452 0.22208,-11.42483 -2.55793,-17.21748 -1.47971,-3.08324 -2.27961,-4.18068 -5.11073,-7.0118 -2.82838,-2.82838 -3.93154,-3.63288 -7.0118,-5.11346 -4.86488,-2.3384 -8.60218,-3.1286 -13.6588,-2.88797 -4.7544,0.22624 -8.82899,1.48783 -12.82575,3.97115 -6.35225,3.94687 -10.74326,10.00544 -12.40965,17.1224 -0.72074,3.07819 -0.81045,9.16704 -0.17486,11.8675 3.51953,14.95342 17.33607,23.91072 32.52604,21.08671 z m -56.58162,-57.8297 c 1.22615,-0.30763 3.88026,-1.38402 5.89802,-2.39197 6.30912,-3.15165 11.08203,-8.74998 13.44223,-15.76691 0.93223,-2.77155 1.04094,-3.65843 1.04289,-8.50864 0.002,-5.05712 -0.0759,-5.63462 -1.18028,-8.74755 -3.71724,-10.4777 -13.21802,-17.73529 -24.08345,-18.39724 -8.09137,-0.49295 -15.76683,2.41639 -21.21055,8.03975 -2.84098,2.93473 -3.88195,4.40055 -5.32787,7.50236 -1.8119,3.88691 -2.56268,7.34271 -2.54642,11.72111 0.0354,9.5443 4.456,17.72867 12.43823,23.02858 2.4523,1.62823 7.69687,3.63198 10.77841,4.11802 2.68573,0.42361 7.81545,0.13846 10.74879,-0.59751 z m 115.35556,-0.0439 c 5.26704,-1.35548 10.80623,-4.88087 14.05878,-8.94762 2.70455,-3.38157 3.83395,-5.39635 5.13884,-9.1674 0.95015,-2.74589 1.07267,-3.65981 1.08885,-8.12188 0.0153,-4.2229 -0.12677,-5.49221 -0.88749,-7.9285 -1.55228,-4.9713 -3.36981,-7.97794 -7.02642,-11.62341 -2.75009,-2.74172 -3.9444,-3.61411 -6.9752,-5.09511 -9.18066,-4.4861 -18.73548,-3.97347 -27.05571,1.45157 -6.00641,3.91636 -9.74166,9.01862 -11.65818,15.92475 -1.06882,3.85152 -1.14823,9.97817 -0.17694,13.65218 2.33112,8.81766 9.42278,16.47392 17.87107,19.29385 4.80907,1.6052 10.73885,1.81836 15.6224,0.56157 z M 660.36515,213.4431 c 12.1231,-3.86255 19.83895,-14.95003 19.16538,-27.54015 -0.37894,-7.0829 -2.91625,-12.85473 -7.83121,-17.81425 -5.74645,-5.79855 -13.90721,-8.84903 -21.62893,-8.08486 -17.22038,1.70419 -28.58891,17.9931 -24.14918,34.60113 2.51869,9.42183 10.92584,17.36318 20.64964,19.50553 3.88062,0.85498 9.93561,0.56202 13.7943,-0.6674 z"
   id="path437"
   transform="translate(97,97.1)" /><path
   id="path494"
   style="fill:#ff00ff;fill-opacity:1;stroke-width:0.136739"
   d="M 253.81836 130.83203 L 253.81836 134.67773 L 253.81836 138.52539 L 255.79297 138.52539 C 258.87646 138.52539 260.93448 138.13711 260.51758 137.63477 C 260.27151 137.33828 259.61166 137.17436 258.08398 137.0332 C 256.58758 136.89493 256.00781 136.66336 256.00781 136.20117 C 256.00781 135.79895 256.70511 135.51216 258.01562 135.37695 C 259.10972 135.26407 259.83594 134.99168 259.83594 134.69531 C 259.83594 134.39171 259.08331 134.10748 257.98438 133.99609 C 256.6746 133.86333 256.00781 133.59214 256.00781 133.19141 C 256.00781 132.73225 256.61195 132.47853 258.0293 132.34375 C 259.57757 132.19652 260.29049 132.03294 260.50586 131.77344 C 260.93245 131.25942 259.69984 130.99205 256.51953 130.90625 L 253.81836 130.83203 z M 548.46289 130.83398 L 548.52148 134.09766 C 548.58026 137.34817 548.6493 137.84266 549.10547 138.29883 C 549.3831 138.57649 549.49432 138.57967 549.98828 138.32422 C 550.39744 138.11264 550.67969 137.51753 550.67969 136.86914 C 550.67969 136.30721 550.93455 135.8427 551.34375 135.65625 C 551.54179 135.56602 552.35437 135.44367 553.15039 135.38477 C 553.94641 135.32586 554.71679 135.21462 554.86133 135.13672 C 555.32984 134.88433 555.69994 134.36991 555.93555 133.64453 C 556.39933 132.21661 557.14308 131.82027 557.83008 132.63672 C 558.26037 133.14809 558.4378 133.93427 558.59375 136.03125 C 558.72457 137.79017 558.89604 138.28642 559.43359 138.45703 C 559.85594 138.59108 560.35654 138.19293 560.50977 137.60156 C 560.58289 137.31933 560.68152 136.31899 560.72852 135.37891 C 560.7766 134.41663 560.90461 133.41758 561.02148 133.0918 C 561.20373 132.5838 561.2997 132.49545 561.80078 132.36914 C 562.66693 132.15079 562.98633 131.98741 562.98633 131.76367 C 562.98633 131.1592 561.34733 130.996 554.39062 130.9082 L 548.46289 130.83398 z M 245.20508 130.86719 L 245.20508 134.1582 C 245.20508 136.31788 245.15816 137.41878 245.06836 137.36328 C 244.99311 137.31677 244.39734 136.22278 243.74609 134.93359 C 242.80016 133.06105 242.40701 132.4303 241.79102 131.79688 C 241.16863 131.15686 240.93696 131.00391 240.58398 131.00391 C 239.56029 131.00391 238.57654 132.50795 237.42383 135.83398 C 236.77319 137.71136 236.72469 138.20502 237.17188 138.38477 C 237.61583 138.56324 237.90591 138.55088 238.42969 138.33203 C 238.72685 138.20786 238.9085 138.02806 238.9375 137.83203 C 239.01527 137.30648 239.60233 136.99409 240.50391 136.99609 C 241.43377 136.99828 241.98948 137.17795 242.4707 137.63672 C 243.1544 138.28851 244.69594 138.63859 246.05859 138.45117 C 247.00101 138.32156 247.32644 137.97298 247.45312 136.95898 C 247.57032 136.02096 247.92792 135.58232 248.68945 135.43945 C 249.81899 135.22755 250.67383 135.84833 250.67383 136.88086 C 250.67383 137.82609 251.31006 138.64572 251.89844 138.45898 C 252.31247 138.32757 252.46343 138.04644 252.58594 137.17969 C 252.69447 136.41193 252.55559 131.47355 252.42188 131.33984 C 252.35299 131.27096 246.69422 130.86779 245.78516 130.86719 L 245.20508 130.86719 z M 577.46094 130.87891 C 577.37433 130.88775 577.29442 130.91434 577.2207 130.95898 C 577.10073 131.03164 576.87893 131.33327 576.72852 131.62891 C 576.48424 132.109 576.45508 132.43597 576.45508 134.69531 C 576.45508 137.3971 576.51416 137.83058 576.9375 138.25391 L 576.93555 138.25586 C 577.27767 138.59768 577.4909 138.59585 577.93555 138.24609 C 578.38634 137.8915 578.57114 137.22504 578.57812 135.92773 L 578.58398 134.90234 L 579.16016 135.58594 C 580.95691 137.71962 581.83832 138.38867 582.85547 138.38867 C 583.58437 138.38867 583.90625 138.01413 583.90625 137.16602 C 583.90625 136.79442 583.97966 136.44543 584.06836 136.39062 C 584.16731 136.32948 584.49851 136.58607 584.92383 137.05469 C 585.87732 138.10523 586.30202 138.29327 587.87305 138.35938 C 588.95719 138.405 589.29991 138.36565 589.94922 138.12109 C 591.96268 137.36272 592.10454 135.79701 590.31055 134.12891 C 589.84103 133.69233 589.51967 133.29223 589.57227 133.20703 C 589.62349 133.12415 589.9702 133.05469 590.3418 133.05469 C 591.54399 133.05469 591.89012 132.27566 590.91016 131.77539 C 590.33057 131.47952 589.18653 131.27734 588.07812 131.27734 C 585.81687 131.27734 584.99995 131.76088 585.00195 133.09961 C 585.00293 133.86667 585.21493 134.29465 585.87695 134.85938 C 586.10814 135.0566 586.23483 135.26492 586.17773 135.35742 C 586.05285 135.55917 585.11714 135.56455 584.67969 135.36523 C 584.19539 135.14457 584.03686 134.67471 583.91016 133.0918 C 583.7911 131.60423 583.59542 131.09706 583.07422 130.93164 C 582.69144 130.81015 582.20373 131.07789 581.98438 131.53125 C 581.88828 131.7298 581.77427 132.59271 581.73047 133.44727 L 581.65039 135 L 580.49805 133.53906 C 579.00356 131.64424 578.06718 130.81703 577.46094 130.87891 z M 229.36914 130.89453 C 229.29467 130.8934 229.21868 130.90424 229.14062 130.92383 C 228.62071 131.05432 228.38016 131.55589 228.25781 132.76953 C 228.19654 133.37725 228.07046 133.96693 227.97656 134.08008 C 227.75388 134.34838 227.00749 134.33009 226.06055 134.0332 C 225.13398 133.74269 225.08761 133.47162 225.92578 133.25781 C 226.78703 133.0381 227.1543 132.81535 227.1543 132.51367 C 227.1543 131.97323 226.3634 131.49221 224.99023 131.20117 C 222.53986 130.68182 220.5928 131.34283 220.5918 132.69336 C 220.59138 133.22193 220.66069 133.32542 221.61719 134.22852 C 222.18149 134.76131 222.64258 135.26972 222.64258 135.35742 C 222.64258 135.45251 222.4203 135.51562 222.08984 135.51562 C 221.46471 135.51562 220.80277 135.80775 220.67578 136.13867 C 220.12106 137.58425 221.6811 138.50449 224.41992 138.34766 C 225.99174 138.25764 226.58166 138.07481 227.29883 137.46094 C 227.88017 136.96332 228.24805 136.95402 228.24805 137.43555 C 228.24805 137.85087 228.4965 138.24839 228.83984 138.38672 C 229.78008 138.76555 230.24364 138.26607 230.50195 136.59766 C 230.54456 136.32241 230.73106 135.96211 230.92773 135.77734 C 231.21801 135.50461 231.41998 135.44727 232.09961 135.44727 C 232.82459 135.44727 232.9586 135.49258 233.24219 135.82227 C 233.43434 136.04566 233.59929 136.45763 233.65039 136.84766 C 233.76548 137.72654 233.91519 138.05877 234.32031 138.32422 C 234.73467 138.59571 235.14993 138.48987 235.44531 138.03906 C 235.77831 137.53079 235.96526 134.87374 235.79297 133.10547 C 235.62519 131.38358 235.38849 130.92343 234.6875 130.95703 C 234.109 130.98477 233.87812 131.20543 233.70312 131.90039 C 233.49375 132.73186 233.06019 133.0894 232.18164 133.1543 C 231.30656 133.21897 230.62626 132.86253 230.5 132.27344 C 230.31479 131.40929 229.89042 130.90247 229.36914 130.89453 z M 564.92773 130.89453 C 564.83071 130.91255 564.74322 130.96806 564.63672 131.06445 C 564.13406 131.51935 564.01567 132.18539 564.01367 134.55859 C 564.01205 137.05704 564.09141 137.64552 564.50391 138.16992 C 564.80785 138.55632 565.04146 138.60563 565.46875 138.37695 C 565.90716 138.14232 566.13086 137.4067 566.13086 136.20508 C 566.13086 135.60101 566.17796 135.10928 566.23438 135.11328 C 566.29078 135.11716 566.70246 135.64765 567.15039 136.29102 C 567.59833 136.93439 568.15968 137.6089 568.39844 137.79102 C 569.08213 138.31249 570.12649 138.47054 571.72656 138.29297 C 573.82323 138.06028 574.47248 137.56506 575.04102 135.76562 C 575.37904 134.69576 575.40965 133.54122 575.11523 132.97266 C 574.51296 131.80961 573.03805 131.17604 570.63086 131.04492 C 568.11476 130.90787 567.6638 131.14099 566.94727 132.95117 C 566.70141 133.57227 566.4566 134.12935 566.4043 134.18945 C 566.35199 134.24952 566.2673 133.76095 566.2168 133.10352 C 566.11375 131.76287 565.84463 131.14619 565.27344 130.94531 C 565.13089 130.89518 565.02476 130.87651 564.92773 130.89453 z M 543.54297 130.90234 C 542.49009 130.88755 541.43737 131.08194 540.76172 131.46094 C 539.56551 132.13193 538.98187 133.78373 539.29492 135.61133 C 539.56114 137.16547 540.35596 137.99173 541.92578 138.34766 C 543.54227 138.71418 545.91021 138.28908 546.65625 137.49805 C 547.45669 136.64934 547.788 134.39573 547.31641 133.01172 C 547.05454 132.24315 546.1635 131.40225 545.35547 131.16016 C 544.80522 130.9953 544.17469 130.91122 543.54297 130.90234 z "
   transform="translate(97,97.1)" /><path
   id="path220"
   style="fill:url(#linearGradient225);stroke-width:0.273478;fill-opacity:1"
   d="M 274.85742 283.75195 C 270.44516 283.70631 266.19268 283.90807 263.0332 284.36914 C 255.59498 285.45462 247.72592 288.02014 240.0293 291.86914 C 238.16633 292.80079 236.60128 293.67308 236.55078 293.80664 C 236.50033 293.94024 236.34655 293.97953 236.20898 293.89453 C 236.07142 293.80951 235.95898 293.87871 235.95898 294.04688 C 235.95898 294.21502 235.84949 294.28437 235.71484 294.20117 C 235.58019 294.11795 235.39654 294.24032 235.30664 294.47461 C 235.21673 294.70888 235.03219 294.83195 234.89648 294.74805 C 234.76076 294.66418 234.57623 294.78719 234.48633 295.02148 C 234.39643 295.25576 234.21189 295.37882 234.07617 295.29492 C 233.94046 295.21104 233.75075 295.34551 233.65625 295.5918 C 233.56174 295.83805 233.41558 295.96831 233.33008 295.88281 C 233.24459 295.79733 232.48803 296.73323 231.64844 297.96289 C 227.87835 303.4845 224.48137 307.5233 219.56836 312.32812 C 217.23034 314.61465 212.80338 318.50499 211.8457 319.11328 C 211.33103 319.44018 208.01877 326.18841 206.70312 329.5918 C 204.7513 334.64088 203.25994 340.40818 202.41992 346.14453 C 201.75076 350.71696 201.74952 361.24617 202.41797 365.83398 C 204.78459 382.07674 211.9272 396.43829 223.18164 407.57812 C 235.48177 419.753 250.69014 426.87709 268.23047 428.68359 C 270.95793 428.96449 279.65699 428.83004 282.8457 428.45703 C 298.13448 426.66861 312.0068 420.43247 323.53125 410.16992 C 333.43984 401.3463 341.17501 388.89921 344.92578 375.74023 C 345.8403 372.53177 346.90181 366.81632 347.29102 363.00781 C 347.698 359.02537 347.45659 348.99869 346.86523 345.32227 C 342.95914 321.0382 328.18704 300.85314 306.92578 290.74609 C 300.70026 287.78664 293.18943 285.40188 287.64648 284.625 C 283.84291 284.09191 279.26969 283.79759 274.85742 283.75195 z M 532.51172 283.79297 C 527.05521 283.77363 521.3508 284.09067 517.44922 284.75195 C 510.89565 285.86272 504.37213 288.11225 497.21094 291.72852 C 478.7382 301.05691 464.8703 319.10782 460.09961 340.0332 C 459.87144 341.03399 459.44296 343.556 459.14648 345.63867 C 455.82165 368.99457 463.6985 392.00813 480.61523 408.35938 C 492.24945 419.60468 506.51274 426.39256 522.83789 428.45117 C 526.83807 428.95559 537.61217 428.82311 541.57031 428.2207 C 554.88099 426.19484 566.41843 421.21657 576.71289 413.05664 C 579.92006 410.51447 585.82504 404.63472 588.29492 401.52344 C 596.88589 390.70147 602.14953 377.94786 603.81641 363.91992 C 604.29848 359.863 604.22496 351.19107 603.67188 346.96484 C 602.51473 338.1229 599.53842 328.72497 595.64844 321.62695 C 594.52102 319.56975 594.04917 319.01882 592.02734 317.40039 C 589.136 315.08593 582.69097 308.66978 579.9668 305.39453 C 577.86361 302.86588 574.31782 298.12423 573.51758 296.76953 C 573.26986 296.35018 572.78087 295.8768 572.42969 295.7168 C 572.07852 295.55679 571.79102 295.30012 571.79102 295.14648 C 571.79102 294.99281 571.69875 294.89795 571.58594 294.93555 C 571.47313 294.97315 571.09978 294.72086 570.75586 294.37695 C 570.41194 294.03303 570.01211 293.82642 569.86719 293.91602 C 569.72226 294.00555 569.60352 293.96863 569.60352 293.83398 C 569.60352 293.4912 561.54381 289.6542 558.30078 288.45312 C 555.15544 287.28823 550.13722 285.80928 546.08398 284.85352 C 543.17723 284.1681 537.96823 283.81231 532.51172 283.79297 z M 273.67578 304.43555 C 276.1822 304.38823 278.72129 304.52492 281.27539 304.85742 C 293.20378 306.41029 303.41478 311.5829 311.84961 320.34375 C 319.12415 327.89947 323.58354 336.62454 325.58203 347.21484 C 325.93449 349.08258 326.05255 351.22481 326.06055 355.85156 C 326.07161 362.44638 325.89409 364.01407 324.56055 369.11523 C 319.27303 389.34155 302.17937 404.41209 281.43945 407.13086 C 278.12877 407.56485 271.4558 407.62251 268.51562 407.24219 C 250.87462 404.96024 235.80709 394.12457 228.17188 378.23242 C 223.58882 368.69312 222.06889 357.61726 223.90039 347.10156 C 228.17421 322.56299 249.4471 304.89295 273.67578 304.43555 z M 529.2168 304.50781 C 532.84267 304.42919 537.33701 304.66191 539.92969 305.12109 C 550.63874 307.01778 560.07375 311.89671 567.69336 319.47852 C 575.58432 327.33036 580.62316 337.30493 582.34961 348.49219 C 582.93887 352.31059 582.93889 359.72156 582.34961 363.50977 C 581.46091 369.22275 579.88312 374.14915 577.29297 379.29883 C 569.66073 394.47309 554.91851 404.92955 538.07031 407.11914 C 534.14758 407.62895 528.08503 407.61912 524.20508 407.0957 C 509.13938 405.06327 495.2493 395.96644 487.29492 382.92383 C 480.53414 371.83835 478.15321 358.36079 480.73633 345.80664 C 485.31286 323.56431 503.39535 307.1326 525.98242 304.69336 C 526.89511 304.5948 528.00817 304.53402 529.2168 304.50781 z "
   transform="translate(97,97.1)" /><path
   id="path228"
   style="fill:url(#linearGradient233);stroke-width:0.273478;fill-opacity:1"
   d="M 480.78906 302.79688 C 480.22962 302.79687 473.08086 310.47552 470.7207 313.61133 C 462.85751 324.05868 458.1049 334.9841 455.79297 347.92188 C 455.21175 351.17446 455.33436 373.43034 455.95312 376.91016 C 457.77952 387.18143 461.75703 397.11571 467.60547 406.02148 C 471.03317 411.24104 473.68136 414.47701 477.63867 418.2793 C 491.10535 431.21844 507.076 438.51746 525.57227 440.1875 C 528.69686 440.46962 538.68301 440.09695 542.16016 439.56836 C 551.65237 438.12538 560.38353 435.18025 568.26367 430.76172 C 585.92646 420.85791 599.19071 404.32592 604.64844 385.41406 C 606.89803 377.6189 607.60614 372.07984 607.61914 362.16797 C 607.62942 354.34692 607.27435 350.44177 605.9707 344.07227 C 604.58748 337.31402 602.77569 332.14878 599.46484 325.5293 C 598.03383 322.66824 597.3792 321.66156 596.46484 320.91016 C 595.82176 320.3817 595.25016 319.99774 595.19336 320.05664 C 595.13652 320.1155 595.84594 321.70214 596.77148 323.58398 C 602.09745 334.41296 604.58747 345.84751 604.24414 357.90234 C 604.01929 365.7971 602.98282 371.84732 600.64453 378.90234 C 596.5721 391.18952 589.55622 401.88606 579.99414 410.39062 C 570.78395 418.5822 561.31606 423.64315 549.50195 426.6875 C 532.20557 431.14456 514.37269 429.23074 498.44727 421.20898 C 489.38405 416.64375 480.83868 409.77897 474.61328 402.0625 C 468.05826 393.93745 463.03548 383.94174 460.47266 373.91797 C 458.98113 368.08428 458.48333 363.8259 458.45703 356.67188 C 458.43393 350.40338 458.50465 349.14506 459.11328 344.91406 C 461.19366 330.45191 468.16242 316.34776 478.69922 305.27539 C 479.99658 303.91209 480.93708 302.79688 480.78906 302.79688 z M 328.1582 305.92383 C 328.13407 305.92541 328.12109 305.94052 328.12109 305.9707 C 328.12109 306.12779 328.44267 306.55527 328.83398 306.91992 C 330.19291 308.18627 333.5713 312.58125 335.76758 315.93945 C 338.26177 319.75316 341.82498 326.7776 343.2832 330.75195 C 350.0858 349.2923 349.05147 370.09531 340.44922 387.71289 C 333.23227 402.49333 322.10135 413.8525 307.74805 421.08594 C 297.49439 426.25333 287.69826 428.70887 276.21484 428.99023 C 268.52414 429.17866 262.30168 428.36364 254.14648 426.10156 C 248.07979 424.41878 240.48951 420.88439 234.66406 417.0293 C 229.78833 413.8027 227.11741 411.60086 222.68945 407.15234 C 211.21457 395.62418 204.09967 380.88648 202.17383 364.65625 C 201.46356 358.67036 201.64496 350.28324 202.61719 344.0918 C 203.71899 337.0752 206.53684 328.60737 209.83594 322.4043 C 210.51586 321.12591 211.07227 320.0031 211.07227 319.9082 C 211.07227 319.81327 210.52113 320.1392 209.8457 320.63281 C 208.83078 321.37452 208.31219 322.12405 206.86328 324.94922 C 202.65565 333.15355 200.44588 340.13707 199.00781 349.77344 C 198.37437 354.01804 198.0919 366.0875 198.52344 370.48242 C 200.01705 385.69337 204.79013 397.97911 213.91016 410.08594 C 217.31137 414.60103 219.43787 416.94894 222.90039 420.01562 C 226.96183 423.61277 228.88653 425.11304 232.69922 427.65039 C 243.18791 434.6306 254.86853 438.7615 267.82031 440.07227 C 271.77661 440.47266 281.49601 440.19912 285.5957 439.57227 C 302.54131 436.98128 316.92627 429.62302 329.43359 417.14844 C 335.14733 411.44966 339.16436 405.67339 343.43945 397.00977 C 344.77544 394.30233 346.30965 390.80673 346.84766 389.24023 C 347.93759 386.06669 349.57713 379.89578 349.83398 378.00391 C 350.68999 371.69882 351.15804 360.7228 350.82422 354.75781 C 349.95078 339.15021 344.0892 324.30547 333.91406 311.93164 C 331.49212 308.98636 328.52016 305.90017 328.1582 305.92383 z "
   transform="translate(97,97.1)" /><path
   style="fill:#cccccc;stroke-width:0.193378"
   d="m 268.41123,407.04977 c -9.16138,-1.15693 -17.87989,-4.76713 -25.23412,-10.44906 -2.60364,-2.0116 -6.53304,-5.84313 -8.42849,-8.21857 -6.06281,-7.59814 -9.77064,-16.27721 -11.07026,-25.91267 -0.4416,-3.27402 -0.4416,-9.68232 0,-12.95633 2.31917,-17.19437 12.64391,-31.74877 27.96553,-39.42194 5.02471,-2.51641 10.1039,-4.1424 15.56694,-4.98341 2.92265,-0.44993 11.57269,-0.51099 14.30998,-0.10102 6.83668,1.02394 13.0244,3.11626 18.52218,6.26311 4.27144,2.44491 7.46948,4.92106 11.16136,8.64192 7.40088,7.45898 12.00543,16.20366 14.05935,26.70066 0.46603,2.38175 0.51782,3.12007 0.59073,8.42199 0.0626,4.55367 0.0148,6.27997 -0.2211,7.9766 -2.35544,16.94259 -12.94585,31.59706 -28.25551,39.09854 -4.71508,2.31031 -9.12739,3.73093 -14.50336,4.66961 -3.0031,0.52436 -11.23419,0.67834 -14.46323,0.27057 z"
   id="path236"
   transform="translate(97,97.1)" /><path
   style="fill:#cccccc;stroke-width:0.193378"
   d="m 525.22756,407.05114 c -11.57074,-1.46344 -22.17951,-6.64729 -30.32476,-14.81783 -14.02792,-14.07148 -18.6523,-34.81263 -11.95881,-53.63731 1.06475,-2.99451 3.6486,-8.16441 5.36831,-10.74121 8.29434,-12.42817 20.69387,-20.35746 35.54551,-22.73075 2.64862,-0.42325 9.46431,-0.58502 12.35015,-0.29313 19.30365,1.95249 35.71745,14.3163 42.88846,32.30603 7.17576,18.00163 3.46658,38.53189 -9.61632,53.22628 -7.68624,8.63299 -18.21988,14.3764 -30.08957,16.40615 -3.1097,0.53176 -10.95269,0.6878 -14.16297,0.28177 z"
   id="path238"
   transform="translate(97,97.1)" /></svg>
